<svg width="160" height="15" viewBox="0 0 160 15" fill="none" xmlns="http://www.w3.org/2000/svg">
<path d="M2.05023 7.33991C2.64806 7.72541 3.33867 7.94385 4.05 7.97248C4.76134 8.0011 5.46733 7.83884 6.09436 7.50264C6.72139 7.16643 7.24646 6.66858 7.61481 6.06104C7.98314 5.4535 8.18128 4.75852 8.18849 4.0486C8.20731 3.92217 8.19006 3.79301 8.13876 3.67589C8.08746 3.55877 8.00415 3.45839 7.89838 3.38624C7.79259 3.31408 7.66858 3.27307 7.54053 3.26786C7.41248 3.26266 7.28552 3.29347 7.17421 3.35679C7.03893 3.4381 6.92867 3.55491 6.85545 3.69447C6.78223 3.83404 6.74889 3.99098 6.75905 4.14816C6.72107 4.80571 6.42865 5.42289 5.94339 5.86967C5.45813 6.31645 4.81792 6.55795 4.15764 6.54328C3.47275 6.5295 2.82109 6.24634 2.34464 5.75549C1.8682 5.26464 1.60559 4.6059 1.61405 3.92281C1.63571 3.24696 1.91852 2.60563 2.40332 2.13289C2.88814 1.66015 3.53742 1.39261 4.21544 1.38619C6.94823 1.41764 9.68102 1.38619 12.4138 1.38619C12.9656 1.38619 12.9761 1.3862 12.9761 1.9365C12.9761 3.57167 12.9761 5.20684 12.9761 6.84202C12.9761 7.65436 13.2547 7.9269 14.0797 7.9269L26.9449 7.9269C33.3564 7.9269 39.7627 7.9269 46.1742 7.9269C46.5242 7.92681 46.8707 7.99645 47.1933 8.13173C47.5159 8.26702 47.8082 8.46521 48.053 8.71469C48.2978 8.96416 48.4901 9.25988 48.6187 9.58449C48.7473 9.90911 48.8096 10.2561 48.8019 10.605C48.7646 11.239 48.4915 11.8364 48.0362 12.2804C47.5808 12.7244 46.9758 12.9832 46.3393 13.0061C45.7029 13.029 45.0807 12.8145 44.5944 12.4044C44.1081 11.9943 43.7925 11.4181 43.7095 10.7884C43.7095 10.6627 43.7095 10.5369 43.6727 10.4163C43.6423 10.2378 43.5462 10.0769 43.4033 9.96509C43.2604 9.8533 43.0808 9.79861 42.8997 9.81171C42.7185 9.8248 42.5488 9.90472 42.4235 10.0359C42.2982 10.1671 42.2264 10.3401 42.2222 10.5212C42.218 10.7938 42.2534 11.0657 42.3273 11.3283C42.4864 12.0637 42.8501 12.7395 43.3766 13.2783C43.9032 13.8171 44.5713 14.1971 45.3044 14.3746C46.0375 14.5522 46.8059 14.5202 47.5216 14.2823C48.2373 14.0444 48.8713 13.6103 49.351 13.0296C49.8307 12.4489 50.1366 11.7452 50.2337 10.9991C50.3308 10.253 50.2152 9.49472 49.9001 8.81115C49.585 8.12758 49.0831 7.54638 48.452 7.13415C47.8209 6.72192 47.0861 6.49535 46.3319 6.48039C45.2808 6.45419 44.2297 6.48039 43.1787 6.48039L28.2377 6.48039C27.5755 6.48039 27.5702 6.48039 27.5702 5.84099C27.5702 4.66702 27.5702 3.49305 27.5702 2.31908C27.5702 1.31282 27.4284 1.41764 28.4689 1.41764L131.879 1.41765C132.325 1.41765 132.341 1.41765 132.341 1.8841C132.341 3.24674 132.341 4.60938 132.341 5.97203C132.341 6.45419 132.31 6.46468 131.847 6.49612L114.252 6.49612C114 6.49612 113.727 6.49612 113.495 6.49612C112.71 6.50812 111.947 6.75756 111.307 7.21144C110.667 7.66532 110.18 8.30224 109.911 9.03798C109.592 9.75568 109.507 10.5548 109.666 11.3236C109.825 12.0923 110.221 12.7921 110.799 13.3251C111.336 13.8976 112.036 14.2924 112.804 14.4564C113.573 14.6203 114.374 14.5456 115.098 14.2422C115.83 13.9635 116.462 13.4746 116.915 12.8374C117.368 12.2002 117.621 11.4434 117.642 10.6627C117.642 10.1386 117.39 9.80316 116.959 9.78743C116.528 9.77171 116.286 10.0495 116.218 10.5526C116.194 10.7608 116.157 10.9674 116.107 11.171C115.947 11.775 115.569 12.2986 115.045 12.6411C114.521 12.9836 113.889 13.1208 113.269 13.0263C112.683 12.9378 112.145 12.6519 111.745 12.2162C111.344 11.7805 111.105 11.2212 111.067 10.6312C111.039 10.0208 111.232 9.42069 111.61 8.93983C111.988 8.45897 112.526 8.12932 113.127 8.01076C113.462 7.96434 113.8 7.95205 114.136 7.97407L145.395 7.97407C145.627 7.97407 145.858 7.97407 146.089 7.97407C146.281 7.9679 146.465 7.89033 146.603 7.75655C146.741 7.62278 146.824 7.44242 146.835 7.25082C146.85 7.07643 146.85 6.90112 146.835 6.72673C146.835 5.15444 146.835 3.58216 146.835 2.00988C146.835 1.42813 146.835 1.42289 147.429 1.42289L155.775 1.42289C155.983 1.41843 156.191 1.43777 156.395 1.48054C156.995 1.62389 157.523 1.97735 157.884 2.47657C158.245 2.97579 158.414 3.58757 158.36 4.20059C158.315 4.80029 158.059 5.36496 157.639 5.79614C157.218 6.22733 156.66 6.49766 156.06 6.56004C155.46 6.62241 154.857 6.47286 154.356 6.13746C153.856 5.80205 153.489 5.30207 153.32 4.72468C153.255 4.43971 153.207 4.15088 153.179 3.85993C153.151 3.69484 153.06 3.54713 152.924 3.44896C152.788 3.3508 152.619 3.31013 152.453 3.33584C152.369 3.33076 152.284 3.34321 152.204 3.37241C152.125 3.40161 152.052 3.44692 151.991 3.5055C151.929 3.56408 151.881 3.63465 151.849 3.71278C151.816 3.79092 151.8 3.87492 151.802 3.95951C151.784 4.231 151.798 4.50359 151.844 4.77185C152.019 5.6381 152.474 6.42356 153.138 7.00902C153.802 7.59449 154.639 7.94802 155.522 8.01599C156.446 8.08058 157.364 7.8247 158.12 7.29169C158.877 6.75868 159.425 5.98132 159.672 5.09132C159.92 4.20131 159.851 3.25338 159.478 2.40813C159.105 1.56288 158.45 0.872271 157.625 0.453316C156.938 0.131935 156.186 -0.0225271 155.428 0.00260315L80.0555 0.00259656L25.6415 0.0025918C19.3141 0.00259125 12.9866 0.00259069 6.6592 0.00259014L4.38887 0.00258994C3.94789 -0.00406197 3.50845 0.0560157 3.08554 0.18078C2.34398 0.391393 1.67928 0.811281 1.17148 1.3899C0.663667 1.96852 0.334413 2.68121 0.223344 3.44212C0.11229 4.20303 0.224168 4.97974 0.545487 5.67872C0.866822 6.37769 1.38388 6.96913 2.03447 7.38183L2.05023 7.33991ZM140.792 1.41765C141.48 1.41765 142.174 1.41765 142.894 1.41765C143.614 1.41765 144.276 1.41765 144.97 1.41765C145.427 1.41765 145.443 1.41765 145.443 1.86313C145.443 3.26246 145.443 4.66179 145.443 6.05589C145.443 6.39131 145.301 6.4804 144.991 6.47516C143.603 6.47516 142.221 6.47516 140.839 6.47516C140.382 6.47516 140.366 6.47516 140.361 6.02444C140.361 4.62686 140.361 3.24674 140.361 1.8841C140.319 1.43338 140.329 1.42289 140.771 1.41765L140.792 1.41765ZM133.792 1.89982C133.792 1.43862 133.792 1.42289 134.233 1.42289C135.636 1.42289 137.045 1.42289 138.437 1.42289C138.784 1.42289 138.863 1.56439 138.863 1.87361C138.863 3.25197 138.863 4.63559 138.863 6.01919C138.863 6.45419 138.863 6.46992 138.395 6.46992L134.238 6.46992C133.807 6.46992 133.797 6.46992 133.792 5.993C133.792 5.28023 133.792 4.56746 133.792 3.85993C133.765 3.19957 133.76 2.5497 133.77 1.89982L133.792 1.89982ZM21.0431 1.89981C21.0431 1.43861 21.0431 1.42288 21.4793 1.42288C22.8825 1.42288 24.2909 1.42288 25.6836 1.42288C26.0252 1.42288 26.104 1.56962 26.104 1.8736C26.104 3.25196 26.104 4.63559 26.104 6.01395C26.104 6.45419 26.104 6.46991 25.6363 6.46991L21.5476 6.46991C21.0536 6.46991 21.0483 6.46991 21.0221 5.94582C21.0221 5.27498 21.0221 4.60413 21.0221 3.93853C21.0168 3.24148 21.0116 2.57065 21.0221 1.89981L21.0431 1.89981ZM14.8891 1.41764C16.2975 1.41764 17.7007 1.41764 19.0934 1.41764C19.519 1.41764 19.5243 1.41764 19.5296 1.89456C19.5296 2.58637 19.5296 3.27294 19.5296 3.96474C19.5296 4.65655 19.5296 5.34311 19.5296 6.06112C19.5296 6.3913 19.4034 6.49088 19.0881 6.48564C17.6797 6.48564 16.2765 6.48564 14.8838 6.48564C14.5948 6.48564 14.4739 6.39654 14.4739 6.09257C14.4739 4.66703 14.4739 3.24498 14.4739 1.82643C14.4529 1.49101 14.5895 1.4124 14.8681 1.41764L14.8891 1.41764Z" fill="white"/>
</svg>
