<svg width="201" height="18" viewBox="0 0 201 18" fill="none" xmlns="http://www.w3.org/2000/svg">
<path d="M197.822 9.04572C197.072 8.58248 196.206 8.31998 195.314 8.28558C194.422 8.25119 193.537 8.44617 192.751 8.85018C191.965 9.25419 191.306 9.85243 190.844 10.5825C190.383 11.3126 190.134 12.1477 190.125 13.0008C190.101 13.1527 190.123 13.3079 190.187 13.4487C190.252 13.5894 190.356 13.71 190.489 13.7967C190.621 13.8834 190.777 13.9327 190.938 13.939C191.098 13.9452 191.257 13.9082 191.397 13.8321C191.566 13.7344 191.705 13.594 191.797 13.4263C191.888 13.2586 191.93 13.07 191.917 12.8812C191.965 12.091 192.332 11.3493 192.94 10.8125C193.549 10.2756 194.351 9.98538 195.179 10.003C196.038 10.0196 196.855 10.3598 197.453 10.9497C198.05 11.5395 198.379 12.3311 198.369 13.152C198.341 13.9641 197.987 14.7348 197.379 15.3028C196.771 15.8709 195.957 16.1924 195.107 16.2001C191.68 16.1623 188.254 16.2001 184.827 16.2001C184.135 16.2001 184.122 16.2001 184.122 15.5388C184.122 13.5739 184.122 11.609 184.122 9.64403C184.122 8.66786 183.773 8.34036 182.738 8.34036H166.607C158.568 8.34036 150.535 8.34036 142.496 8.34036C142.057 8.34046 141.622 8.25678 141.218 8.09421C140.813 7.93165 140.447 7.69348 140.14 7.3937C139.833 7.09391 139.592 6.73856 139.431 6.34848C139.269 5.9584 139.191 5.54147 139.201 5.12215C139.248 4.36025 139.59 3.64241 140.161 3.10886C140.732 2.5753 141.491 2.26437 142.289 2.23682C143.087 2.20927 143.867 2.46707 144.477 2.95986C145.086 3.45266 145.482 4.14504 145.586 4.90172C145.586 5.05287 145.586 5.20401 145.632 5.34886C145.67 5.56346 145.791 5.75679 145.97 5.89113C146.149 6.02546 146.374 6.09117 146.602 6.07544C146.829 6.05971 147.042 5.96367 147.199 5.80604C147.356 5.64842 147.446 5.44052 147.451 5.22292C147.456 4.89524 147.412 4.56855 147.319 4.25304C147.12 3.36931 146.664 2.55718 146.003 1.90972C145.343 1.26227 144.506 0.805699 143.586 0.592314C142.667 0.378929 141.704 0.417361 140.806 0.703231C139.909 0.9891 139.114 1.51083 138.512 2.20863C137.911 2.90642 137.527 3.75205 137.406 4.6486C137.284 5.54515 137.429 6.45636 137.824 7.27778C138.219 8.09921 138.848 8.79762 139.64 9.29298C140.431 9.78834 141.352 10.0606 142.298 10.0786C143.616 10.1101 144.934 10.0786 146.252 10.0786H164.986C165.816 10.0786 165.823 10.0786 165.823 10.8469C165.823 12.2577 165.823 13.6684 165.823 15.0791C165.823 16.2883 166.001 16.1623 164.696 16.1623H35.033C34.4729 16.1623 34.4531 16.1623 34.4531 15.6018C34.4531 13.9644 34.4531 12.3269 34.4531 10.6895C34.4531 10.1101 34.4926 10.0975 35.0725 10.0597H57.1344C57.4507 10.0597 57.7934 10.0597 58.0833 10.0597C59.0679 10.0453 60.0247 9.74552 60.8271 9.20011C61.6296 8.6547 62.2399 7.88933 62.5774 7.00521C62.9772 6.14278 63.0847 5.18246 62.885 4.25869C62.6853 3.33492 62.1884 2.49395 61.4637 1.85354C60.7907 1.16557 59.9132 0.691144 58.9496 0.494102C57.9859 0.29706 56.9822 0.386858 56.0735 0.751414C55.1562 1.08633 54.3635 1.67382 53.7958 2.43953C53.228 3.20524 52.9107 4.11473 52.8841 5.05286C52.8841 5.68265 53.2004 6.08572 53.7408 6.10462C54.2811 6.12351 54.5842 5.78973 54.6699 5.18513C54.7 4.93494 54.7462 4.68673 54.8083 4.44197C55.009 3.7162 55.4835 3.08702 56.1404 2.67545C56.7973 2.26388 57.5902 2.099 58.3666 2.21253C59.1015 2.31894 59.7761 2.66247 60.2784 3.18606C60.7807 3.70965 61.0804 4.38174 61.1277 5.09065C61.1628 5.82413 60.9214 6.54533 60.4474 7.12316C59.9734 7.701 59.2982 8.09713 58.5446 8.23959C58.1255 8.29537 57.7016 8.31015 57.2794 8.28368H18.0846C17.7947 8.28368 17.5047 8.28368 17.2148 8.28368C16.9736 8.2911 16.7439 8.38431 16.5708 8.54507C16.3978 8.70583 16.2937 8.92255 16.2791 9.15279C16.2607 9.36236 16.2607 9.57302 16.2791 9.78258C16.2791 11.6719 16.2791 13.5613 16.2791 15.4507C16.2791 16.1497 16.2791 16.156 15.5345 16.156H5.07021C4.8091 16.1614 4.54822 16.1382 4.29265 16.0868C3.54026 15.9145 2.8776 15.4898 2.42528 14.8899C1.97297 14.29 1.76107 13.5548 1.82815 12.8182C1.88549 12.0975 2.20567 11.419 2.73284 10.9008C3.26002 10.3827 3.96074 10.0578 4.71285 9.98289C5.46496 9.90793 6.22075 10.0876 6.84843 10.4907C7.47611 10.8937 7.93586 11.4946 8.14754 12.1884C8.22978 12.5308 8.28921 12.8779 8.32546 13.2275C8.35947 13.4259 8.47412 13.6034 8.64445 13.7214C8.81478 13.8393 9.02698 13.8882 9.23482 13.8573C9.341 13.8634 9.44735 13.8484 9.54718 13.8134C9.64701 13.7783 9.73817 13.7238 9.81492 13.6534C9.89167 13.583 9.95234 13.4982 9.99313 13.4043C10.0339 13.3105 10.0539 13.2095 10.0519 13.1079C10.0739 12.7816 10.0562 12.4541 9.99921 12.1317C9.77882 11.0907 9.20919 10.1469 8.37674 9.44336C7.54429 8.73982 6.49445 8.31499 5.38651 8.23331C4.22813 8.15569 3.07729 8.46319 2.12897 9.10369C1.18064 9.74419 0.49314 10.6783 0.182945 11.7478C-0.12725 12.8173 -0.0410609 13.9564 0.426897 14.9721C0.894854 15.9878 1.71581 16.8177 2.75068 17.3212C3.61109 17.7073 4.55508 17.893 5.50513 17.8628H100.013H168.241C176.175 17.8628 184.109 17.8628 192.043 17.8628H194.889C195.442 17.8708 195.993 17.7986 196.524 17.6486C197.453 17.3955 198.287 16.891 198.924 16.1957C199.56 15.5004 199.973 14.6439 200.112 13.7296C200.252 12.8152 200.111 11.8819 199.708 11.0419C199.306 10.202 198.657 9.49127 197.841 8.99535L197.822 9.04572ZM23.8571 16.1623C22.9938 16.1623 22.124 16.1623 21.2212 16.1623C20.3185 16.1623 19.4882 16.1623 18.6184 16.1623C18.0451 16.1623 18.0253 16.1623 18.0253 15.627C18.0253 13.9455 18.0253 12.2639 18.0253 10.5887C18.0253 10.1856 18.2032 10.0786 18.592 10.0849C20.3317 10.0849 22.0647 10.0849 23.7978 10.0849C24.3711 10.0849 24.3908 10.0849 24.3974 10.6265C24.3974 12.3059 24.3974 13.9644 24.3974 15.6018C24.4501 16.1434 24.437 16.156 23.8834 16.1623H23.8571ZM32.6344 15.5829C32.6344 16.1371 32.6344 16.156 32.0809 16.156C30.3214 16.156 28.5554 16.156 26.8092 16.156C26.3743 16.156 26.2754 15.986 26.2754 15.6144C26.2754 13.9581 26.2754 12.2954 26.2754 10.6328C26.2754 10.1101 26.2754 10.0912 26.8619 10.0912H32.0743C32.6146 10.0912 32.6278 10.0912 32.6344 10.6643C32.6344 11.5208 32.6344 12.3773 32.6344 13.2275C32.6673 14.0211 32.6739 14.802 32.6607 15.5829H32.6344ZM174.007 15.5829C174.007 16.1371 174.007 16.156 173.46 16.156C171.701 16.156 169.935 16.156 168.188 16.156C167.76 16.156 167.661 15.9797 167.661 15.6144C167.661 13.9581 167.661 12.2954 167.661 10.6391C167.661 10.1101 167.661 10.0912 168.248 10.0912H173.374C173.994 10.0912 174 10.0912 174.033 10.721C174.033 11.5271 174.033 12.3332 174.033 13.1331C174.04 13.9707 174.047 14.7768 174.033 15.5829H174.007ZM181.723 16.1623C179.957 16.1623 178.198 16.1623 176.452 16.1623C175.918 16.1623 175.911 16.1623 175.905 15.5892C175.905 14.7579 175.905 13.9329 175.905 13.1016C175.905 12.2702 175.905 11.4452 175.905 10.5824C175.905 10.1856 176.063 10.066 176.458 10.0723C178.224 10.0723 179.984 10.0723 181.73 10.0723C182.092 10.0723 182.244 10.1793 182.244 10.5446C182.244 12.2576 182.244 13.9665 182.244 15.6711C182.27 16.0742 182.099 16.1686 181.75 16.1623H181.723Z" fill="white"/>
</svg>
