<svg width="221" height="46" viewBox="0 0 221 46" fill="none" xmlns="http://www.w3.org/2000/svg">
<path d="M174.376 31.2136C171.801 33.6607 168.506 34.6895 165.094 35.5168C162.177 36.1574 159.209 36.5598 156.22 36.7195C149.805 37.1575 143.375 37.0671 136.952 37.234C132.414 37.2671 127.887 37.653 123.415 38.3879C120.451 38.8446 117.604 39.8304 115.021 41.2938C113.541 42.1645 112.295 43.3551 111.384 44.7697C111.246 44.9795 111.082 45.1732 110.897 45.3468C110.829 45.414 110.748 45.4676 110.658 45.5041C110.568 45.5407 110.471 45.5595 110.373 45.5595C110.276 45.5595 110.179 45.5407 110.089 45.5041C109.999 45.4676 109.917 45.414 109.85 45.3468C109.705 45.2092 109.576 45.0578 109.464 44.8949C108.237 42.9873 106.448 41.4685 104.321 40.5291C101.827 39.3847 99.1666 38.6066 96.4294 38.2211C93.2731 37.738 90.0881 37.4454 86.8933 37.3452C82.3326 37.1505 77.7647 37.1366 73.204 37.0602C69.5671 36.9976 65.872 36.8863 62.2278 36.5248C58.3366 36.2558 54.5119 35.4164 50.8878 34.0361C48.4836 33.1011 46.3665 31.5991 44.7342 29.6703C44.5646 29.4823 44.4338 29.2653 44.3487 29.0307C44.2177 28.8083 44.2323 28.5024 43.934 28.3773C43.8937 28.3659 43.8596 28.3399 43.8392 28.3048C43.8188 28.2697 43.8137 28.2283 43.8249 28.1896C43.6649 27.557 44.1159 27.4944 44.5523 27.4944C44.9584 27.5452 45.3323 27.7325 45.607 28.0227C46.0078 28.3793 46.4705 28.6663 46.9745 28.8709C48.1722 29.9643 49.5177 30.8995 50.9751 31.6516C53.8787 32.9643 56.9909 33.8054 60.1838 34.1404C63.8207 34.627 67.5304 34.7243 71.2182 34.8703C74.5351 34.9954 77.8447 34.8703 81.1543 35.0024C87.0461 35.2388 92.9597 35.2735 98.757 36.4971C101.91 37.0733 104.913 38.238 107.595 39.9243C108.403 40.5162 109.159 41.1695 109.857 41.8778C110.177 42.1767 110.446 42.2601 110.802 41.8778C113.254 39.3473 116.374 37.9222 119.786 37.0115C123.021 36.1773 126.334 35.6533 129.678 35.4473C132.224 35.2457 134.77 35.2248 137.337 35.0858C140.705 34.9051 144.08 35.0858 147.448 34.9468C152.438 34.7382 157.442 34.7104 162.381 33.8414C165.669 33.2575 168.862 32.4511 171.648 30.6088C171.773 30.5353 171.904 30.4724 172.041 30.4211C172.368 30.3238 172.732 30.289 172.856 29.8928C173.014 29.6214 173.274 29.4176 173.583 29.3227C173.723 29.2954 173.862 29.2606 173.998 29.2185C174.398 29.1072 174.834 28.8569 175.212 29.1837C175.591 29.5104 175.409 29.9901 175.256 30.4003C174.985 30.6926 174.691 30.9645 174.376 31.2136Z" fill="white"/>
<path d="M175.285 30.4003C175.285 30.1848 175.285 29.9693 175.249 29.7538C175.249 29.1907 175.067 29.0586 174.521 29.3158C174.196 29.4814 173.825 29.5469 173.459 29.5035C173.459 29.3367 173.496 29.1718 173.568 29.0196C173.639 28.8674 173.744 28.7315 173.874 28.6206C175.4 26.7018 176.236 24.3636 176.26 21.9538C176.259 19.6128 175.973 17.2799 175.409 15.0019C175.406 14.7942 175.362 14.5888 175.278 14.3971C175.157 14.1824 175.085 13.9454 175.067 13.702C175.057 13.5035 174.997 13.3103 174.892 13.1389C174.74 12.7635 174.434 12.4437 174.732 11.9779C175.933 11.526 176.238 11.6512 176.914 12.8677C176.914 12.9094 177.002 12.9303 177.045 12.9651C177.176 13.111 177.045 13.3335 177.213 13.4725C177.402 13.6602 177.176 13.9592 177.409 14.1677C178.529 17.9426 179.089 21.7591 178.049 25.6452C177.618 27.4484 176.659 29.0974 175.285 30.4003Z" fill="white"/>
<path d="M46.8072 29.0096C46.3317 28.9109 45.9027 28.6669 45.5852 28.3145C45.3712 28.1052 45.1261 27.9272 44.8578 27.7861C44.3777 27.5358 44.0941 27.661 43.8177 28.1824C42.7926 26.373 42.2457 24.3516 42.2247 22.2941C42.1681 19.3267 42.6076 16.3697 43.5267 13.5348C43.6825 12.8342 43.9091 12.1497 44.2032 11.491C44.2855 11.3371 44.3285 11.1667 44.3285 10.9939C44.3285 10.8211 44.2855 10.6507 44.2032 10.4968C44.6178 10.4968 45.0106 10.4968 45.4106 10.4968C45.9925 10.4968 46.0871 10.615 46.138 11.192C46.138 11.4075 46.138 11.623 46.138 11.8455C46.142 11.8848 46.142 11.9244 46.138 11.9637C46.1598 12.1694 46.1598 12.3767 46.138 12.5824C45.4872 14.627 45.0152 16.7198 44.7269 18.8391C44.4141 22.176 44.4796 25.4503 46.6908 28.3145C46.7784 28.4072 46.836 28.5222 46.8567 28.6456C46.8773 28.769 46.8601 28.8954 46.8072 29.0096Z" fill="white"/>
<path d="M220.208 3.55196C219.788 2.68484 219.115 1.95202 218.27 1.44149C217.425 0.930965 216.444 0.66442 215.444 0.673877C210.767 0.583503 206.083 0.673888 201.405 0.597417C195.034 0.527898 188.662 0.597417 182.29 0.597417C133.555 0.597417 84.7767 0.72256 36.0128 0.541812C29.8228 0.541812 23.6473 0.45142 17.4354 0.611313C15.1078 0.666928 12.7801 0.611313 10.4525 0.611313C8.6195 0.611313 6.81559 0.611326 4.95349 0.646085C3.71227 0.732988 2.54077 1.22772 1.63785 2.04632C0.734926 2.86493 0.156231 3.95694 0 5.13699C0.152751 5.18565 0.269134 5.10224 0.400064 5.03967C1.12745 4.71988 1.2802 4.79635 1.4475 5.51239C1.49842 5.74876 1.4475 5.99901 1.53478 6.24233C1.62207 6.48565 1.57842 6.70811 1.92756 6.63859C1.93482 6.55531 1.93482 6.47159 1.92756 6.38831C1.86663 5.87606 1.92425 5.35726 2.09636 4.86865C2.26846 4.38004 2.55085 3.93356 2.92351 3.56081C3.29618 3.18806 3.75001 2.89817 4.2529 2.71164C4.75578 2.5251 5.29543 2.44648 5.83363 2.48137C9.52147 2.54393 13.2166 2.48137 16.9117 2.48137C17.7773 2.48137 17.7845 2.48137 17.7845 3.28779C17.7845 5.37335 17.7845 7.45891 17.7845 9.54447C17.7688 9.77595 17.7688 10.0082 17.7845 10.2397C17.7901 10.3721 17.8233 10.5021 17.8822 10.6221C17.9411 10.7421 18.0245 10.8497 18.1275 10.9384C18.2305 11.0271 18.351 11.0953 18.482 11.1389C18.613 11.1824 18.7518 11.2005 18.8902 11.1921H43.8467C44.0722 11.1921 44.145 11.3242 44.1886 11.491C44.7414 11.2407 44.4941 10.914 44.2904 10.5942C44.3923 10.5942 44.5014 10.6915 44.6105 10.6846C45.3379 10.6846 45.8689 10.8028 45.9489 11.6161C45.9489 11.783 46.1235 11.8942 46.3271 11.7621C46.4638 11.6172 46.5722 11.45 46.6472 11.2685C47.3236 9.77389 46.6472 8.89099 44.9233 9.00222C43.0684 9.12736 41.1991 9.04394 39.337 9.05089C38.4423 9.05089 38.355 8.9466 38.3259 8.08457C38.3259 6.94446 38.3841 5.80437 38.2822 4.66426C38.1077 2.7525 38.1004 2.7525 40.1298 2.7525H180.733C181.053 2.7525 181.381 2.7525 181.693 2.7525C182.421 2.71079 182.668 3.03752 182.661 3.69794C182.661 5.08832 182.661 6.47869 182.661 7.86906C182.661 8.96746 182.559 9.05784 181.402 9.05089C179.424 9.05089 177.453 9.1065 175.474 9.00222C175.226 8.95947 174.971 8.98221 174.736 9.06799C174.501 9.15377 174.295 9.29934 174.14 9.48897C173.985 9.67859 173.887 9.90508 173.857 10.144C173.826 10.3829 173.865 10.6251 173.969 10.8445C174.057 11.2279 174.217 11.593 174.441 11.922C174.543 12.0263 174.689 12.1445 174.812 12.0958C175.751 11.7482 176.267 12.2279 176.733 12.9092C176.747 12.9329 176.766 12.9537 176.789 12.9704C176.811 12.9871 176.837 12.9994 176.865 13.0065C176.893 13.0136 176.922 13.0154 176.95 13.0118C176.979 13.0083 177.006 12.9994 177.031 12.9857C177.023 12.7077 176.958 12.4339 176.842 12.1792C176.514 11.1851 176.514 11.1851 177.569 11.1851H201.224C201.486 11.1851 201.747 11.1851 202.009 11.1851C202.274 11.1988 202.535 11.1137 202.735 10.9477C202.936 10.7818 203.062 10.5479 203.086 10.2953C203.12 10.0464 203.132 9.79527 203.122 9.54447C203.122 7.45891 203.122 5.37335 203.122 3.28779C203.122 2.52308 203.122 2.51613 203.944 2.50918H211.713C212.935 2.50918 214.157 2.50918 215.349 2.50918C216.248 2.52616 217.106 2.86734 217.752 3.46419C218.397 4.06105 218.783 4.86937 218.831 5.72675C218.879 6.58414 218.586 7.42709 218.01 8.08627C217.434 8.74545 216.619 9.17201 215.728 9.28029C214.854 9.39189 213.969 9.19097 213.241 8.71615C212.513 8.24134 211.995 7.52615 211.785 6.70811C211.698 6.40918 211.72 6.10329 211.662 5.80436C211.636 5.65465 211.573 5.51291 211.479 5.39076C211.385 5.26862 211.262 5.16955 211.12 5.1017C210.978 5.03386 210.821 4.99914 210.662 5.00044C210.504 5.00174 210.348 5.03901 210.207 5.10917C210.005 5.22283 209.845 5.39345 209.748 5.59759C209.652 5.80173 209.624 6.02939 209.669 6.24929C209.738 7.36799 210.175 8.43724 210.917 9.30516C211.659 10.1731 212.668 10.7955 213.801 11.0842C214.934 11.3728 216.133 11.3128 217.229 10.9129C218.324 10.513 219.26 9.79335 219.903 8.85624C220.465 8.08665 220.791 7.1826 220.845 6.24562C220.899 5.30864 220.678 4.37583 220.208 3.55196ZM26.8405 8.6894C26.8405 9.09261 26.695 9.23164 26.2877 9.22469C24.3092 9.22469 22.3307 9.22469 20.3595 9.22469C19.974 9.22469 19.8576 9.0787 19.8576 8.73111C19.8576 6.8402 19.8576 4.95623 19.8576 3.06532C19.8576 2.66906 19.9958 2.52309 20.4177 2.53699C21.4069 2.53699 22.3889 2.53699 23.3781 2.53699C24.3674 2.53699 25.2984 2.53699 26.2877 2.53699C26.7459 2.53699 26.8841 2.68993 26.8841 3.12095C26.8259 4.94234 26.8259 6.81933 26.8405 8.67548V8.6894ZM35.9328 8.6894C35.9328 9.0787 35.7946 9.2386 35.38 9.23165C33.4015 9.23165 31.423 9.23165 29.4445 9.23165C29.0808 9.23165 28.9281 9.11346 28.9281 8.75196C28.9281 6.83325 28.9281 4.91454 28.9281 2.99582C28.9281 2.68299 29.0517 2.54393 29.3863 2.54393H35.4964C35.8528 2.54393 35.9328 2.73163 35.9328 3.02361C35.9328 3.96907 35.9328 4.91453 35.9328 5.85999C35.9255 6.78458 35.911 7.72307 35.9328 8.66852V8.6894ZM191.971 8.63377C191.971 9.21078 191.971 9.22469 191.317 9.22469H185.687C185.039 9.22469 185.025 9.22469 185.025 8.5295C185.025 6.74982 185.025 4.97015 185.025 3.19047C185.025 2.53004 185.025 2.49528 185.752 2.49528H188.458C189.418 2.49528 190.378 2.49528 191.368 2.49528C192.008 2.49528 192.03 2.49528 192.03 3.07228C192.005 4.93075 191.986 6.77763 191.971 8.61292V8.63377ZM201.064 8.7033C201.064 9.10651 200.904 9.23165 200.496 9.23165C198.525 9.23165 196.547 9.23165 194.568 9.23165C194.19 9.23165 194.066 9.0787 194.066 8.73111C194.066 6.84484 194.066 4.95623 194.066 3.06532C194.066 2.66906 194.219 2.53003 194.626 2.54393C195.645 2.54393 196.663 2.54393 197.681 2.54393C198.7 2.54393 199.543 2.54393 200.467 2.54393C200.933 2.54393 201.071 2.70384 201.064 3.12791C201.049 4.94234 201.042 6.81934 201.064 8.68244V8.7033Z" fill="white"/>
<path d="M55.9868 23.8514C55.6231 23.8514 55.3903 23.6637 55.3903 23.3578C55.3903 23.0519 55.5358 22.9337 56.1177 22.8642C56.8451 22.7739 56.9833 22.5375 56.9833 21.4043V14.1188C56.9833 13.3889 56.9833 13.2081 56.816 13.0065C56.6487 12.8049 56.4887 12.7145 55.834 12.6241C55.7124 12.6172 55.5978 12.567 55.513 12.4833C55.4282 12.3997 55.3792 12.2887 55.3758 12.1723C55.3758 11.8594 55.6086 11.6787 55.9722 11.6787H60.402C60.773 11.6787 60.9985 11.8594 60.9985 12.1723C60.9985 12.4851 60.853 12.5894 60.2711 12.6589C59.5437 12.7562 59.4055 12.9926 59.4055 14.1188V21.4043C59.4055 22.1343 59.4055 22.315 59.5728 22.5166C59.7401 22.7182 59.9001 22.8086 60.5548 22.899C60.6771 22.9076 60.7917 22.9593 60.8764 23.044C60.961 23.1288 61.0097 23.2406 61.013 23.3578C61.013 23.6637 60.7875 23.8514 60.4166 23.8514H55.9868ZM64.679 16.8995C65.4533 16.2632 66.4366 15.9065 67.4577 15.8915C67.8565 15.874 68.2546 15.9388 68.6249 16.0815C68.9952 16.2243 69.329 16.4416 69.6034 16.7188C69.8298 16.9525 70.0014 17.2296 70.1068 17.5317C70.2121 17.8338 70.2488 18.1539 70.2144 18.4706V21.6268C70.2144 22.6487 70.3235 22.8156 71.1673 22.9407C71.451 22.9963 71.6183 23.1423 71.6183 23.3995C71.6169 23.4633 71.6013 23.5261 71.5727 23.5838C71.544 23.6415 71.5029 23.6927 71.4521 23.7341C71.4012 23.7754 71.3418 23.806 71.2777 23.8239C71.2135 23.8417 71.1462 23.8463 71.08 23.8375H67.3995C67.3335 23.8452 67.2666 23.8398 67.2029 23.8215C67.1393 23.8033 67.0803 23.7726 67.0297 23.7314C66.9791 23.6903 66.938 23.6395 66.909 23.5824C66.88 23.5253 66.8637 23.463 66.8612 23.3995C66.8612 23.0867 66.9848 22.9963 67.5449 22.9059C68.105 22.8156 68.2723 22.5583 68.2723 21.6268V18.999C68.2723 17.7755 67.7122 17.122 66.643 17.122C66.372 17.1211 66.1038 17.1741 65.8553 17.2775C65.6068 17.3808 65.3836 17.5324 65.1996 17.7226C65.0157 17.9128 64.875 18.1375 64.7867 18.3823C64.6983 18.6272 64.6641 18.8869 64.6863 19.145V21.6268C64.6863 22.6487 64.7954 22.8156 65.6392 22.9407C65.7608 22.9494 65.8746 23.0013 65.9581 23.0863C66.0415 23.1712 66.0887 23.283 66.0902 23.3995C66.0888 23.4633 66.0732 23.5261 66.0446 23.5838C66.0159 23.6415 65.9748 23.6927 65.924 23.7341C65.8731 23.7754 65.8137 23.806 65.7495 23.8239C65.6854 23.8417 65.618 23.8463 65.5519 23.8375H61.8495C61.5222 23.8375 61.3185 23.6706 61.3185 23.3995C61.3185 23.1284 61.4349 22.9963 61.995 22.9059C62.5551 22.8156 62.7224 22.5583 62.7224 21.6268V17.8519C62.7224 17.2124 62.5769 17.0455 61.835 16.9551C61.5295 16.8995 61.3622 16.7535 61.3622 16.4963C61.3622 16.2391 61.6313 16.0236 62.0023 16.0445H62.3732C62.9512 16.0576 63.5236 15.9334 64.0389 15.683C64.132 15.6491 64.2303 15.6303 64.3299 15.6273C64.4579 15.6273 64.5808 15.6754 64.672 15.7613C64.7631 15.8471 64.8153 15.9638 64.8172 16.0862C64.8067 16.2458 64.7799 16.4042 64.7372 16.5589L64.679 16.8995ZM77.8083 22.9963C77.0052 23.675 75.9708 24.0506 74.8988 24.053C73.869 24.0043 72.9011 23.5685 72.2061 22.8405C71.5112 22.1125 71.1456 21.1515 71.1891 20.1669C71.189 19.599 71.3073 19.0367 71.5371 18.5129C71.7669 17.9892 72.1036 17.5144 72.5275 17.1164C72.9514 16.7184 73.4541 16.4051 74.0061 16.1947C74.5581 15.9844 75.1484 15.8814 75.7426 15.8915C76.4573 15.8867 77.1603 16.0643 77.7792 16.4059V13.0691C77.7792 12.645 77.6556 12.4434 77.3646 12.4434C77.2952 12.4494 77.2268 12.4634 77.161 12.4851C77.0591 12.4851 76.9718 12.5199 76.9137 12.5199C76.7972 12.518 76.6862 12.4726 76.6046 12.3932C76.5229 12.3139 76.4772 12.2071 76.4772 12.0958C76.4822 11.9654 76.5287 11.8396 76.6106 11.7352C76.6925 11.6308 76.8059 11.5529 76.9355 11.5119L79.9177 10.1215C80.1869 9.99635 80.2014 9.99633 80.3251 9.99633C80.3804 9.99331 80.4357 10.0015 80.4874 10.0203C80.5392 10.0392 80.5861 10.0683 80.6253 10.1057C80.6644 10.1431 80.6949 10.188 80.7146 10.2374C80.7343 10.2869 80.7429 10.3398 80.7397 10.3926C80.7397 10.6498 80.6815 10.7402 80.2233 11.053C79.765 11.3659 79.7504 11.6509 79.7504 12.4434V21.9883C79.7504 22.5861 79.9978 22.8781 80.5942 22.9198C81.0306 22.9546 81.1688 23.0658 81.1688 23.3717C81.1688 23.6776 80.9652 23.8305 80.1432 23.8305C79.6132 23.8411 79.09 23.9473 78.6012 24.1434C78.4607 24.1924 78.3139 24.2228 78.1647 24.2337C78.1046 24.2356 78.0446 24.2261 77.9882 24.2058C77.9319 24.1855 77.8803 24.1547 77.8364 24.1154C77.7925 24.076 77.7571 24.0287 77.7323 23.9763C77.7076 23.9238 77.6938 23.8672 77.6919 23.8097C77.7015 23.6324 77.7233 23.4559 77.7574 23.2813L77.8083 22.9963ZM77.8083 17.6086C77.2623 17.1232 76.5531 16.8398 75.808 16.8092C74.3096 16.8092 73.1967 18.0327 73.1967 19.6733C73.1967 21.314 74.3678 22.7738 75.7862 22.7738C76.0863 22.7684 76.3821 22.7039 76.6549 22.5843C76.9277 22.4647 77.1718 22.2925 77.3719 22.0787C77.5469 21.8708 77.6758 21.6312 77.7508 21.3742C77.8258 21.1173 77.8454 20.8484 77.8083 20.584V17.6086ZM81.2271 23.8653C81.1609 23.8741 81.0936 23.8695 81.0294 23.8517C80.9653 23.8338 80.9058 23.8032 80.855 23.7618C80.8041 23.7205 80.763 23.6693 80.7344 23.6116C80.7057 23.554 80.6902 23.4911 80.6888 23.4273C80.6888 23.1145 80.8124 23.0241 81.3652 22.9337C81.918 22.8434 82.0926 22.5862 82.0926 21.6546V17.8033C82.0926 17.2193 81.9326 17.0525 81.2125 16.983C80.8997 16.9482 80.7179 16.7814 80.7179 16.545C80.7179 16.3086 80.9434 16.0862 81.4453 16.0862C82.1314 16.1224 82.8167 16.0033 83.4456 15.7386C83.5366 15.7073 83.6325 15.6909 83.7292 15.6899C83.7922 15.6861 83.8552 15.6946 83.9146 15.7149C83.974 15.7351 84.0285 15.7666 84.0748 15.8076C84.121 15.8485 84.1581 15.898 84.1837 15.9531C84.2093 16.0082 84.223 16.0676 84.2239 16.1279V16.399C84.1466 16.8259 84.1125 17.2589 84.122 17.692V21.6268C84.122 22.6487 84.2457 22.8156 85.0676 22.9407C85.1899 22.9478 85.3046 22.9992 85.3884 23.0845C85.4723 23.1698 85.5188 23.2825 85.5186 23.3995C85.5202 23.4617 85.5077 23.5235 85.4819 23.5806C85.4562 23.6377 85.4178 23.6889 85.3694 23.7305C85.3211 23.7721 85.2639 23.8032 85.2017 23.8217C85.1396 23.8401 85.074 23.8455 85.0094 23.8375L81.2271 23.8653ZM84.253 13.4375C84.272 13.6834 84.2128 13.9291 84.0832 14.1423C83.9537 14.3556 83.7597 14.5264 83.5267 14.6324C83.2938 14.7384 83.0328 14.7747 82.7779 14.7365C82.523 14.6983 82.2861 14.5874 82.0983 14.4183C81.9106 14.2492 81.7806 14.0298 81.7256 13.7889C81.6705 13.548 81.6929 13.2968 81.7897 13.0683C81.8866 12.8397 82.0535 12.6445 82.2685 12.5082C82.4835 12.3719 82.7366 12.3008 82.9946 12.3044C83.3159 12.3003 83.6264 12.4154 83.861 12.6253C84.0956 12.8352 84.2361 13.1238 84.253 13.4306V13.4375ZM93.3598 21.9952C93.3598 22.7391 93.5053 22.8712 94.4073 22.9963C94.5041 23.0145 94.591 23.065 94.6523 23.1389C94.7137 23.2129 94.7454 23.3052 94.7418 23.3995C94.7418 23.7123 94.5091 23.8583 94.0145 23.8583C93.3409 23.8213 92.6684 23.9455 92.0578 24.2198C91.959 24.2514 91.8563 24.2701 91.7523 24.2755C91.6267 24.2703 91.5077 24.2204 91.4188 24.1354C91.3299 24.0504 91.2776 23.9367 91.2722 23.8166C91.2796 23.7069 91.2941 23.5978 91.3159 23.4899C91.3746 23.2933 91.4016 23.0894 91.3959 22.8851C90.5002 23.6017 89.3776 24.0083 88.2099 24.0391C87.5825 24.0746 86.9648 23.8777 86.4853 23.4893C86.0058 23.1009 85.7012 22.5509 85.635 21.9535C85.664 21.5404 85.8164 21.1439 86.0743 20.8111C86.3322 20.4784 86.6847 20.2234 87.0898 20.0765C87.7592 19.7897 88.4526 19.5572 89.1628 19.3813C90.974 18.8878 91.4904 18.5402 91.4904 17.8311C91.4835 17.6911 91.4464 17.5539 91.3816 17.4282C91.3168 17.3024 91.2256 17.1908 91.1137 17.1001C91.0019 17.0095 90.8717 16.9418 90.7312 16.9013C90.5908 16.8609 90.4432 16.8484 90.2975 16.8648C89.9251 16.8931 89.5629 16.9948 89.2337 17.1635C88.9044 17.3322 88.6153 17.5642 88.3845 17.845C87.7444 18.5402 87.6208 18.5958 87.2134 18.5958C86.985 18.6076 86.7607 18.5346 86.5872 18.3921C86.4137 18.2497 86.3045 18.0487 86.2824 17.8311C86.2824 16.8787 88.2972 15.8915 90.2539 15.8915C92.2105 15.8915 93.4035 16.7883 93.4035 18.3942L93.3598 21.9952ZM91.3813 19.5412C90.7582 19.9757 90.0432 20.2747 89.2865 20.4172C88.2172 20.7092 87.8317 21.1124 87.8317 21.7311C87.8489 21.8876 87.8984 22.0392 87.9773 22.1773C88.0563 22.3154 88.1632 22.4371 88.2917 22.5354C88.4203 22.6337 88.568 22.7066 88.7263 22.7499C88.8845 22.7932 89.0502 22.8061 89.2137 22.7878C89.5237 22.7899 89.8306 22.7289 90.114 22.6088C90.3974 22.4887 90.6508 22.3123 90.8572 22.0913C91.0637 21.8703 91.2185 21.6098 91.3114 21.3271C91.4043 21.0444 91.4331 20.7461 91.3959 20.4519L91.3813 19.5412ZM97.6223 16.9134C98.3966 16.2771 99.3798 15.9204 100.401 15.9054C100.799 15.8884 101.195 15.9535 101.564 16.0963C101.934 16.239 102.266 16.4561 102.539 16.7327C102.767 16.9658 102.94 17.2426 103.047 17.5448C103.153 17.8469 103.191 18.1673 103.158 18.4846V21.6268C103.158 22.6487 103.26 22.8156 104.103 22.9407C104.387 22.9963 104.554 23.1423 104.554 23.3995C104.553 23.4627 104.537 23.5248 104.509 23.5819C104.481 23.639 104.441 23.6899 104.391 23.7311C104.34 23.7724 104.282 23.8032 104.219 23.8215C104.155 23.8398 104.089 23.8453 104.023 23.8375H100.335C100.27 23.8453 100.203 23.8398 100.14 23.8215C100.077 23.8032 100.018 23.7724 99.9682 23.7311C99.9182 23.6899 99.8778 23.639 99.8495 23.5819C99.8213 23.5248 99.806 23.4627 99.8044 23.3995C99.8044 23.0867 99.9281 22.9963 100.481 22.9059C101.034 22.8156 101.208 22.5583 101.208 21.6268V18.999C101.208 17.7755 100.655 17.122 99.579 17.122C99.3082 17.121 99.0403 17.174 98.7922 17.2775C98.5441 17.3809 98.3212 17.5326 98.1378 17.7229C97.9544 17.9132 97.8145 18.138 97.727 18.3828C97.6395 18.6276 97.6063 18.8872 97.6296 19.145V21.6268C97.6296 22.6487 97.7314 22.8156 98.5752 22.9407C98.6968 22.9494 98.8105 23.0013 98.894 23.0863C98.9775 23.1712 99.0247 23.283 99.0261 23.3995C99.0246 23.4627 99.0093 23.5248 98.981 23.5819C98.9528 23.639 98.9124 23.6899 98.8624 23.7311C98.8123 23.7724 98.7538 23.8032 98.6906 23.8215C98.6273 23.8398 98.5607 23.8453 98.4952 23.8375H94.7637C94.4363 23.8375 94.2327 23.6706 94.2327 23.3995C94.2327 23.1284 94.3563 22.9963 94.9092 22.9059C95.462 22.8156 95.6365 22.5583 95.6365 21.6268V17.8519C95.6365 17.2124 95.4911 17.0455 94.7491 16.9551C94.4436 16.8995 94.2763 16.7535 94.2763 16.4963C94.2763 16.2391 94.5454 16.0236 94.9164 16.0445H95.2874C95.8654 16.0582 96.438 15.934 96.9531 15.683C97.0462 15.6491 97.1445 15.6303 97.2441 15.6273C97.3081 15.6264 97.3716 15.6376 97.4311 15.6601C97.4906 15.6827 97.5449 15.7162 97.5908 15.7588C97.6367 15.8014 97.6734 15.8523 97.6988 15.9084C97.7242 15.9646 97.7377 16.025 97.7387 16.0862C97.7271 16.2462 97.6979 16.4047 97.6514 16.5589L97.6223 16.9134ZM119.735 12.6798C119.788 12.761 119.816 12.855 119.815 12.9509C119.815 13.2637 119.611 13.3888 118.702 13.6461C116.272 14.5011 114.832 15.6691 114.301 17.2402C116.993 17.2749 117.938 18.0953 118.476 20.869C118.847 22.3498 119.262 22.8434 120.12 22.9546C120.491 23.0102 120.68 23.1771 120.68 23.4273C120.68 23.6776 120.433 23.907 120.004 23.907H117.611C117.385 23.9363 117.156 23.9072 116.946 23.8229C116.736 23.7385 116.554 23.6019 116.418 23.4273C116.171 23.1006 116.171 23.0658 116.091 21.5712C115.945 19.284 115.305 18.5054 113.603 18.5054C113.166 18.5054 113.043 18.4081 112.876 18.1022V21.46C112.876 22.1899 112.876 22.3706 113.036 22.5722C113.196 22.7738 113.363 22.8642 114.025 22.9546C114.146 22.9633 114.26 23.0152 114.344 23.1002C114.427 23.1851 114.474 23.2969 114.476 23.4134C114.476 23.7193 114.25 23.907 113.879 23.907H109.435C109.064 23.907 108.839 23.7193 108.839 23.4134C108.839 23.1075 108.984 22.9894 109.566 22.9198C110.293 22.8295 110.432 22.5931 110.432 21.46V14.1188C110.432 13.3889 110.432 13.2081 110.264 13.0065C110.097 12.8049 109.937 12.7145 109.275 12.6241C109.154 12.6171 109.04 12.5667 108.957 12.4828C108.873 12.399 108.826 12.2881 108.824 12.1723C108.824 11.8594 109.049 11.6787 109.42 11.6787H113.865C114.236 11.6787 114.461 11.8594 114.461 12.1723C114.461 12.4851 114.316 12.5894 113.734 12.6589C113.006 12.7562 112.876 12.9926 112.876 14.1188V17.3514C113.196 15.8865 113.996 14.5571 115.16 13.5557C116.454 12.353 117.916 11.4701 118.636 11.4701C118.898 11.4701 119.066 11.5814 119.247 11.8733L119.735 12.6798ZM120.324 23.8861C120.258 23.8939 120.191 23.8885 120.127 23.8702C120.064 23.852 120.005 23.8213 119.954 23.7801C119.904 23.7389 119.863 23.6882 119.834 23.6311C119.805 23.5739 119.788 23.5116 119.786 23.4482C119.786 23.1353 119.909 23.045 120.469 22.9546C121.03 22.8642 121.197 22.607 121.197 21.6755V17.8241C121.197 17.2402 121.03 17.0733 120.309 17.0038C120.004 16.9691 119.815 16.8022 119.815 16.5658C119.815 16.3295 120.04 16.107 120.542 16.107C121.228 16.1433 121.914 16.0242 122.542 15.7594C122.634 15.7282 122.729 15.7117 122.826 15.7108C122.889 15.707 122.952 15.7155 123.012 15.7357C123.071 15.7559 123.125 15.7875 123.172 15.8284C123.218 15.8694 123.255 15.9189 123.281 15.974C123.306 16.029 123.32 16.0885 123.321 16.1487V16.4199C123.237 16.8461 123.201 17.2794 123.212 17.7129V21.6268C123.212 22.6487 123.335 22.8156 124.157 22.9407C124.448 22.9963 124.616 23.1562 124.616 23.3995C124.616 23.462 124.603 23.5239 124.576 23.581C124.549 23.6381 124.51 23.6892 124.461 23.7307C124.413 23.7722 124.355 23.8031 124.292 23.8216C124.23 23.84 124.164 23.8454 124.099 23.8375L120.324 23.8861ZM123.35 13.4584C123.369 13.7043 123.31 13.95 123.18 14.1632C123.051 14.3764 122.857 14.5472 122.624 14.6533C122.391 14.7593 122.13 14.7956 121.875 14.7574C121.62 14.7192 121.383 14.6082 121.195 14.4391C121.007 14.27 120.878 14.0507 120.822 13.8098C120.767 13.5689 120.79 13.3177 120.887 13.0891C120.984 12.8606 121.15 12.6654 121.365 12.529C121.58 12.3927 121.834 12.3217 122.092 12.3252C122.41 12.3192 122.718 12.4308 122.953 12.6367C123.187 12.8426 123.329 13.1269 123.35 13.4306V13.4584ZM128.056 21.6268C128.056 22.6835 128.18 22.8156 129.169 22.9407C129.292 22.9461 129.408 22.997 129.492 23.0827C129.576 23.1684 129.622 23.282 129.62 23.3995C129.62 23.462 129.607 23.5239 129.58 23.581C129.554 23.6381 129.515 23.6892 129.466 23.7307C129.417 23.7722 129.359 23.8031 129.297 23.8216C129.234 23.84 129.168 23.8454 129.103 23.8375H125.314C125.248 23.8452 125.181 23.8398 125.117 23.8215C125.054 23.8033 124.995 23.7726 124.944 23.7314C124.893 23.6903 124.852 23.6395 124.823 23.5824C124.794 23.5253 124.778 23.463 124.776 23.3995C124.776 23.0867 124.899 22.9963 125.459 22.9059C126.019 22.8156 126.187 22.5722 126.187 21.6268V17.8311C126.187 17.1707 126.041 17.0455 125.197 17.0247C124.725 17.0247 124.47 16.8648 124.47 16.538C124.47 16.2113 124.616 16.114 125.045 15.9541C125.898 15.6462 126.607 15.0569 127.045 14.2926C127.107 14.2142 127.188 14.1504 127.28 14.1059C127.372 14.0613 127.473 14.0372 127.576 14.0354C127.925 14.0354 128.092 14.2161 128.092 14.5985V16.0653H129.489C129.984 16.0653 130.173 16.1904 130.173 16.538V16.7605C130.184 16.8177 130.181 16.8765 130.165 16.9326C130.149 16.9887 130.12 17.0407 130.08 17.0847C130.041 17.1287 129.991 17.1637 129.935 17.1869C129.879 17.2102 129.819 17.2213 129.758 17.2193C129.66 17.2112 129.563 17.1973 129.467 17.1776C129.187 17.1051 128.899 17.0631 128.609 17.0525H128.092L128.056 21.6268ZM132.144 19.3118C132.144 21.1541 133.599 22.7182 135.294 22.7182C135.875 22.7079 136.44 22.5311 136.916 22.2107C137.185 22.0439 137.265 22.0091 137.41 22.0091C137.51 22.0089 137.605 22.0446 137.678 22.1091C137.751 22.1736 137.796 22.2621 137.803 22.3567C137.803 23.0519 135.846 24.0182 134.37 24.0182C133.279 24.0313 132.227 23.6315 131.443 22.906C130.66 22.1806 130.208 21.1885 130.187 20.146C130.196 19.5634 130.328 18.9884 130.573 18.455C130.819 17.9217 131.174 17.4409 131.618 17.041C132.061 16.6411 132.584 16.3302 133.156 16.1268C133.727 15.9234 134.335 15.8316 134.944 15.8568C136.545 15.8568 137.723 16.4616 137.723 17.3027C137.71 17.5283 137.605 17.7401 137.431 17.8933C137.258 18.0464 137.028 18.1288 136.792 18.1231C136.406 18.1231 136.319 18.0883 135.599 17.5044C135.197 17.159 134.684 16.9533 134.144 16.9204C133.01 16.9343 132.144 17.9562 132.144 19.3257V19.3118ZM141.011 16.9343C141.763 16.2558 142.755 15.8714 143.789 15.8568C145.477 15.8568 146.568 16.8092 146.568 18.3038V21.6268C146.568 22.6487 146.67 22.8156 147.514 22.9407C147.636 22.9478 147.751 22.9992 147.834 23.0845C147.918 23.1698 147.965 23.2825 147.965 23.3995C147.963 23.4627 147.948 23.5248 147.919 23.5819C147.891 23.639 147.851 23.6899 147.801 23.7311C147.751 23.7724 147.692 23.8032 147.629 23.8215C147.566 23.8398 147.499 23.8453 147.434 23.8375H143.746C143.68 23.8453 143.614 23.8398 143.55 23.8215C143.487 23.8032 143.429 23.7724 143.379 23.7311C143.328 23.6899 143.288 23.639 143.26 23.5819C143.232 23.5248 143.216 23.4627 143.215 23.3995C143.215 23.0867 143.338 22.9963 143.891 22.9059C144.444 22.8156 144.619 22.5583 144.619 21.6268V18.9434C144.619 17.7546 144.044 17.122 142.975 17.122C141.782 17.122 141.018 17.9423 141.018 19.2075V21.6268C141.018 22.6487 141.12 22.8156 141.964 22.9407C142.255 22.9963 142.422 23.1562 142.422 23.3995C142.419 23.463 142.403 23.5253 142.374 23.5824C142.345 23.6395 142.304 23.6903 142.253 23.7314C142.203 23.7726 142.144 23.8033 142.08 23.8215C142.017 23.8398 141.95 23.8452 141.884 23.8375H138.203C138.137 23.8463 138.07 23.8417 138.005 23.8239C137.941 23.806 137.882 23.7754 137.831 23.7341C137.78 23.6927 137.739 23.6415 137.71 23.5838C137.682 23.5261 137.666 23.4633 137.665 23.3995C137.665 23.0867 137.788 22.9963 138.341 22.9059C138.894 22.8156 139.069 22.5583 139.069 21.6268V13.0482C139.069 12.5894 138.945 12.4225 138.661 12.4225H138.392C138.31 12.4303 138.227 12.4303 138.145 12.4225C138.037 12.4172 137.936 12.3721 137.863 12.2968C137.79 12.2216 137.75 12.1221 137.752 12.0193C137.752 11.7691 137.876 11.6231 138.225 11.4562L141.273 10.0172C141.363 9.95456 141.474 9.92277 141.585 9.92683C141.641 9.92396 141.697 9.93212 141.75 9.95083C141.802 9.96954 141.85 9.9984 141.89 10.0356C141.931 10.0728 141.962 10.1175 141.984 10.1669C142.005 10.2164 142.016 10.2696 142.015 10.3231C142.015 10.6011 141.971 10.6568 141.396 11.0739C141.105 11.2894 141.025 11.6022 141.025 12.3669L141.011 16.9343ZM151.42 20.4102C150.554 20.737 150.285 20.9942 150.285 21.453C150.285 22.1482 151.216 22.7252 152.22 22.7252C152.987 22.69 153.728 22.4491 154.358 22.03C154.569 21.8979 154.627 21.8632 154.773 21.8632C154.824 21.8594 154.876 21.8654 154.924 21.881C154.973 21.8965 155.018 21.9212 155.057 21.9535C155.095 21.9859 155.127 22.0253 155.149 22.0695C155.172 22.1137 155.185 22.1617 155.188 22.2107C155.188 22.5027 154.817 22.9059 154.176 23.3022C153.41 23.7576 152.526 23.9985 151.623 23.9974C151.085 24.0004 150.552 23.8998 150.055 23.7017C149.559 23.5035 149.109 23.2118 148.733 22.8439C148.357 22.4761 148.062 22.0396 147.867 21.5606C147.671 21.0816 147.578 20.5697 147.594 20.0557C147.58 19.502 147.683 18.9515 147.897 18.4368C148.111 17.9221 148.431 17.4538 148.838 17.06C149.245 16.6662 149.732 16.3548 150.268 16.1445C150.804 15.9342 151.379 15.8292 151.958 15.8359C153.645 15.8359 155.027 16.8578 155.027 18.1231C155.027 18.7418 154.722 19.1033 153.915 19.4161L151.42 20.4102ZM152.147 19.0199C152.78 18.7626 152.969 18.5819 152.969 18.1648C152.962 17.9815 152.916 17.8015 152.836 17.6351C152.755 17.4686 152.641 17.3191 152.5 17.195C152.358 17.071 152.193 16.9749 152.012 16.9122C151.832 16.8496 151.64 16.8216 151.449 16.83C150.358 16.83 149.55 17.7824 149.55 19.0755C149.544 19.482 149.6 19.8873 149.718 20.2781C149.899 19.9723 150.045 19.861 150.62 19.6386L152.147 19.0199ZM158.439 16.8509C159.213 16.2145 160.196 15.8578 161.218 15.8428C161.615 15.8254 162.012 15.8903 162.381 16.0331C162.751 16.1758 163.083 16.3931 163.356 16.6701C163.584 16.9032 163.757 17.1801 163.863 17.4822C163.97 17.7843 164.008 18.1048 163.974 18.422V21.6268C163.974 22.6487 164.076 22.8156 164.92 22.9407C165.211 22.9963 165.371 23.1423 165.371 23.3995C165.369 23.4627 165.354 23.5248 165.326 23.5819C165.298 23.639 165.257 23.6899 165.207 23.7311C165.157 23.7724 165.099 23.8032 165.035 23.8215C164.972 23.8398 164.905 23.8453 164.84 23.8375H161.152C161.086 23.8453 161.02 23.8398 160.957 23.8215C160.893 23.8032 160.835 23.7724 160.785 23.7311C160.735 23.6899 160.694 23.639 160.666 23.5819C160.638 23.5248 160.623 23.4627 160.621 23.3995C160.621 23.0867 160.745 22.9963 161.298 22.9059C161.85 22.8156 162.025 22.5583 162.025 21.6268V18.999C162.025 17.7755 161.472 17.122 160.403 17.122C160.132 17.1201 159.863 17.1723 159.614 17.2753C159.365 17.3784 159.141 17.5299 158.957 17.7204C158.773 17.9108 158.632 18.1358 158.544 18.3812C158.456 18.6265 158.423 18.8866 158.446 19.145V21.6268C158.446 22.6487 158.548 22.8156 159.392 22.9407C159.514 22.9478 159.629 22.9992 159.713 23.0845C159.796 23.1698 159.843 23.2825 159.843 23.3995C159.841 23.4627 159.826 23.5248 159.798 23.5819C159.769 23.639 159.729 23.6899 159.679 23.7311C159.629 23.7724 159.57 23.8032 159.507 23.8215C159.444 23.8398 159.377 23.8453 159.312 23.8375H155.609C155.275 23.8375 155.071 23.6706 155.071 23.3995C155.071 23.1284 155.195 22.9963 155.748 22.9059C156.3 22.8156 156.475 22.5583 156.475 21.6268V17.8519C156.475 17.2124 156.337 17.0455 155.595 16.9551C155.282 16.8995 155.122 16.7535 155.122 16.4963C155.122 16.2391 155.384 16.0236 155.755 16.0445H156.126C156.704 16.0582 157.276 15.934 157.792 15.683C157.885 15.6503 157.983 15.6316 158.082 15.6273C158.146 15.6264 158.21 15.6376 158.27 15.6601C158.329 15.6827 158.383 15.7162 158.429 15.7588C158.475 15.8014 158.512 15.8523 158.537 15.9084C158.563 15.9646 158.576 16.025 158.577 16.0862C158.567 16.2458 158.54 16.4042 158.497 16.5589L158.439 16.8509Z" fill="white"/>
</svg>
