<svg width="134" height="134" viewBox="0 0 134 134" fill="none" xmlns="http://www.w3.org/2000/svg">
<path d="M67 7.29663C64.6524 10.064 61.5453 12.9252 58.1966 16.0242C53.8083 20.0847 49.0377 24.4803 45.2546 29.0201C41.472 33.5596 38.7451 38.2143 38.1227 42.6279C37.5299 46.8295 38.6231 50.9505 42.9057 55.516H91.0946C95.3769 50.9505 96.4703 46.8295 95.8775 42.6281C95.2546 38.2143 92.528 33.5596 88.7452 29.0203C84.9623 24.4808 80.1917 20.0853 75.8032 16.0244C72.455 12.9254 69.3476 10.064 67 7.29663ZM8.375 17.8282C4.1875 22.0157 4.1875 26.2032 4.1875 30.3907H6.01953V48.9727H4.1875V53.6837H6.01953V126.703H10.7305V53.6837H12.5625V48.9727H10.7305V30.3907H12.5625C12.5625 26.2032 12.5625 22.0157 8.375 17.8282ZM125.625 17.8282C121.438 22.0157 121.438 26.2032 121.438 30.3907H123.27V48.9727H121.438V53.6837H123.27V126.703H127.98V53.6837H129.812V48.9727H127.98V30.3907H129.812C129.812 26.2032 129.812 22.0157 125.625 17.8282ZM29.3125 53.6837C25.125 57.8712 20.9375 62.0587 20.9375 66.2462V72.2657H37.6875V66.2462C37.6875 62.0587 33.5 57.8712 29.3125 53.6837ZM104.688 53.6837C100.5 57.8712 96.3125 62.0587 96.3125 66.2462V72.2657H113.062V66.2462C113.062 62.0587 108.875 57.8712 104.688 53.6837ZM44.2305 60.2266V63.8907H89.7695V60.2266H44.2305ZM44.2305 68.6016V126.703H54.4375V91.3712C54.4375 87.1837 62.8125 78.8087 67 74.6212C71.1875 78.8087 79.5625 87.1837 79.5625 91.3712V126.703H89.7695V68.6016H44.2305ZM19.1055 76.9766V126.703H39.5195V76.9766H19.1055ZM94.4805 76.9766V126.703H114.895V76.9766H94.4805ZM29.3125 78.8087C29.3125 78.8087 33.5 80.9637 33.5 82.9962V91.3712H25.125V82.9962C25.125 80.9637 29.3125 78.8087 29.3125 78.8087ZM104.688 80.2387C104.688 80.2387 108.875 82.3934 108.875 84.4262V92.8012H100.5V84.4262C100.5 82.3934 104.688 80.2387 104.688 80.2387ZM29.3125 95.5587C29.3125 95.5587 33.5 97.7137 33.5 99.7462V108.121H25.125V99.7462C25.125 97.7137 29.3125 95.5587 29.3125 95.5587ZM104.688 95.5587C104.688 95.5587 108.875 97.7137 108.875 99.7462V108.121H100.5V99.7462C100.5 97.7137 104.688 95.5587 104.688 95.5587ZM29.3125 112.309C29.3125 112.309 33.5 114.464 33.5 116.496V124.871H25.125V116.496C25.125 114.464 29.3125 112.309 29.3125 112.309ZM104.688 112.309C104.688 112.309 108.875 114.464 108.875 116.496V124.871H100.5V116.496C100.5 114.464 104.688 112.309 104.688 112.309Z" fill="white"/>
</svg>
