<svg width="40" height="426" viewBox="0 0 40 426" fill="none" xmlns="http://www.w3.org/2000/svg">
<path d="M19.8093 5.52029C18.7489 7.1102 18.148 8.9469 18.0693 10.8387C17.9905 12.7305 18.4369 14.6081 19.3617 16.2757C20.2865 17.9433 21.656 19.3397 23.3272 20.3193C24.9985 21.2989 26.9102 21.8258 28.863 21.8451C29.2108 21.8951 29.5661 21.8492 29.8883 21.7128C30.2105 21.5764 30.4866 21.3548 30.685 21.0735C30.8835 20.7921 30.9963 20.4623 31.0107 20.1218C31.025 19.7812 30.9402 19.4436 30.766 19.1475C30.5424 18.7878 30.2211 18.4945 29.8371 18.2998C29.4532 18.1051 29.0215 18.0164 28.5891 18.0434C26.7804 17.9424 25.0826 17.1647 23.8536 15.8742C22.6246 14.5836 21.9603 12.881 22.0007 11.1249C22.0386 9.3035 22.8175 7.5704 24.1677 6.30328C25.5179 5.03616 27.33 4.33774 29.2091 4.36026C31.0682 4.41788 32.8323 5.16998 34.1327 6.45935C35.4331 7.74872 36.1691 9.47546 36.1867 11.2787C36.1002 18.5465 36.1867 25.8144 36.1867 33.0822C36.1867 34.5498 36.1867 34.5778 34.673 34.5778C30.1749 34.5778 25.6769 34.5778 21.1789 34.5778C18.9443 34.5778 18.1947 35.3185 18.1947 37.5129L18.1947 71.7277C18.1947 88.7792 18.1947 105.817 18.1947 122.868C18.1949 123.799 18.0033 124.721 17.6312 125.579C17.2591 126.437 16.7139 127.214 16.0276 127.865C15.3414 128.516 14.5279 129.027 13.635 129.369C12.742 129.711 11.7876 129.877 10.8277 129.857C9.08366 129.757 7.44041 129.031 6.21903 127.82C4.99765 126.609 4.28589 125 4.22283 123.307C4.15977 121.615 4.7499 119.96 5.87797 118.667C7.00604 117.373 8.59099 116.534 10.3231 116.313C10.6691 116.313 11.0151 116.313 11.3467 116.215C11.838 116.135 12.2805 115.879 12.588 115.499C12.8955 115.119 13.046 114.641 13.01 114.16C12.9739 113.678 12.7541 113.226 12.3933 112.893C12.0324 112.56 11.5565 112.369 11.0584 112.358C10.3083 112.347 9.56048 112.441 8.83822 112.637C6.81524 113.061 4.95616 114.028 3.47406 115.428C1.99195 116.828 0.946794 118.605 0.458327 120.555C-0.0301403 122.505 0.0578363 124.548 0.71223 126.452C1.36662 128.355 2.56094 130.041 4.15829 131.317C5.75563 132.593 7.69138 133.406 9.74371 133.665C11.796 133.923 13.8819 133.615 15.7623 132.777C17.6426 131.939 19.2414 130.604 20.3753 128.926C21.5093 127.248 22.1325 125.294 22.1737 123.288C22.2458 120.492 22.1737 117.697 22.1737 114.902L22.1737 75.166C22.1737 73.4049 22.1737 73.3909 23.9325 73.3909C27.1619 73.3909 30.3912 73.3909 33.6206 73.3909C36.3886 73.3909 36.1003 73.0136 36.1003 75.7809L36.1003 350.8C36.1003 351.988 36.1002 352.03 34.8172 352.03C31.0688 352.03 27.3205 352.03 23.5721 352.03C22.2458 352.03 22.217 351.946 22.1305 350.716L22.1305 303.922C22.1305 303.251 22.1305 302.524 22.1305 301.909C22.0974 299.821 21.4113 297.792 20.1628 296.089C18.9142 294.387 17.1622 293.093 15.1383 292.377C13.1641 291.529 10.9658 291.301 8.85117 291.725C6.73653 292.148 4.81144 293.202 3.34546 294.739C1.7706 296.167 0.68457 298.028 0.233514 300.072C-0.217542 302.116 -0.0119816 304.245 0.822537 306.172C1.5892 308.118 2.93405 309.799 4.68687 311.003C6.43968 312.207 8.52163 312.88 10.6691 312.937C12.1108 312.937 13.0335 312.266 13.0768 311.12C13.12 309.974 12.3559 309.331 10.9719 309.149C10.3992 309.085 9.83102 308.987 9.27072 308.856C7.60934 308.43 6.16907 307.423 5.22692 306.03C4.28478 304.637 3.90736 302.955 4.16723 301.308C4.41081 299.75 5.19721 298.319 6.39577 297.253C7.59434 296.188 9.13285 295.552 10.7556 295.452C12.4347 295.378 14.0856 295.89 15.4083 296.895C16.7311 297.9 17.6379 299.332 17.964 300.931C18.0917 301.82 18.1255 302.719 18.0649 303.614L18.0649 386.748C18.0649 387.362 18.0649 387.977 18.0649 388.592C18.0819 389.104 18.2953 389.591 18.6633 389.958C19.0313 390.325 19.5274 390.546 20.0544 390.577C20.5342 390.616 21.0164 390.616 21.4961 390.577C25.8211 390.577 30.1462 390.577 34.4712 390.577C36.0714 390.577 36.0858 390.577 36.0858 392.156L36.0858 414.351C36.0981 414.905 36.0449 415.459 35.9273 416.001C35.5329 417.596 34.5606 419.002 33.1874 419.961C31.8142 420.921 30.1313 421.37 28.445 421.228C26.7954 421.106 25.2421 420.427 24.056 419.309C22.8699 418.191 22.1262 416.705 21.9546 415.109C21.7831 413.514 22.1944 411.911 23.1171 410.58C24.0397 409.248 25.4151 408.273 27.0033 407.824C27.7872 407.65 28.5817 407.524 29.3821 407.447C29.8362 407.375 30.2425 407.132 30.5126 406.77C30.7826 406.409 30.8945 405.959 30.8237 405.518C30.8377 405.293 30.8034 405.067 30.7231 404.856C30.6428 404.644 30.5182 404.451 30.357 404.288C30.1959 404.125 30.0018 403.996 29.7868 403.91C29.5719 403.823 29.3408 403.781 29.1081 403.785C28.3613 403.739 27.6115 403.776 26.8736 403.897C24.4907 404.364 22.3301 405.573 20.7196 407.338C19.1091 409.104 18.1366 411.331 17.9496 413.681C17.7719 416.137 18.4758 418.578 19.942 420.59C21.4082 422.601 23.5466 424.06 25.9948 424.717C28.443 425.375 31.0505 425.193 33.3757 424.2C35.7008 423.207 37.6005 421.466 38.7529 419.271C39.637 417.446 40.0619 415.444 39.9928 413.429L39.9927 212.976L39.9927 68.2615C39.9927 51.4336 39.9927 34.6057 39.9927 17.7778L39.9927 11.7399C40.011 10.5671 39.8458 9.39844 39.5026 8.27368C38.9232 6.30151 37.7682 4.53372 36.1765 3.18323C34.5849 1.83273 32.6244 0.95706 30.5313 0.661681C28.4382 0.366301 26.3017 0.663848 24.3789 1.51843C22.4562 2.37298 20.8293 3.74814 19.694 5.47836L19.8093 5.52029ZM36.1003 374.504C36.1003 376.335 36.1003 378.18 36.1003 380.095C36.1003 382.009 36.1003 383.77 36.1003 385.615C36.1003 386.831 36.1003 386.873 34.8748 386.873C31.0256 386.873 27.1763 386.873 23.3415 386.873C22.4188 386.873 22.1737 386.496 22.1881 385.671C22.1881 381.981 22.1881 378.306 22.1881 374.63C22.1881 373.414 22.1881 373.372 23.428 373.358C27.2724 373.358 31.0688 373.358 34.8172 373.358C36.057 373.246 36.0859 373.274 36.1003 374.448L36.1003 374.504ZM34.7739 355.887C36.0426 355.887 36.0858 355.887 36.0858 357.061C36.0858 360.793 36.0858 364.539 36.0858 368.242C36.0858 369.165 35.6966 369.375 34.846 369.375C31.0544 369.375 27.2484 369.375 23.4424 369.375C22.2458 369.375 22.2025 369.375 22.2025 368.131L22.2025 357.075C22.2025 355.929 22.2025 355.901 23.5144 355.887C25.4751 355.887 27.4358 355.887 29.3821 355.887C31.1986 355.817 32.9862 355.803 34.7739 355.831L34.7739 355.887ZM34.7739 56.032C36.0426 56.032 36.0858 56.0319 36.0858 57.192C36.0858 60.9237 36.0858 64.6695 36.0858 68.3733C36.0858 69.2818 35.6822 69.4915 34.846 69.4915C31.0544 69.4915 27.2484 69.4915 23.4568 69.4915C22.2458 69.4915 22.2025 69.4915 22.2025 68.2475L22.2025 57.3737C22.2025 56.0599 22.2025 56.0459 23.6442 55.976C25.4895 55.976 27.3349 55.976 29.1658 55.976C31.0832 55.962 32.9286 55.9481 34.7739 55.976L34.7739 56.032ZM36.1003 39.6653C36.1003 43.411 36.1003 47.1428 36.1003 50.8466C36.1003 51.9787 36.1002 51.9927 34.7883 52.0067C32.8853 52.0067 30.9967 52.0067 29.0937 52.0067C27.1907 52.0067 25.3021 52.0067 23.327 52.0067C22.4188 52.0067 22.1448 51.6712 22.1593 50.8326C22.1593 47.0869 22.1593 43.3551 22.1593 39.6513C22.1593 38.8826 22.4043 38.5611 23.2405 38.5611C27.1619 38.5611 31.0736 38.5611 34.9757 38.5611C35.8984 38.5052 36.1147 38.8686 36.1003 39.6094L36.1003 39.6653Z" fill="white" fill-opacity="0.2"/>
</svg>
