<svg width="57" height="593" viewBox="0 0 57 593" fill="none" xmlns="http://www.w3.org/2000/svg">
<path d="M28.5957 7.15259C27.1039 9.36975 26.2586 11.931 26.1478 14.5692C26.037 17.2073 26.6649 19.8256 27.966 22.151C29.2671 24.4764 31.1936 26.4238 33.5447 27.7899C35.8958 29.1559 38.5852 29.8907 41.3325 29.9175C41.8217 29.9873 42.3216 29.9233 42.7748 29.7331C43.228 29.5428 43.6165 29.2339 43.8957 28.8416C44.1749 28.4492 44.3336 27.9893 44.3538 27.5144C44.3739 27.0395 44.2547 26.5687 44.0097 26.1558C43.695 25.6542 43.243 25.2452 42.7029 24.9736C42.1628 24.7021 41.5555 24.5785 40.9472 24.6162C38.4026 24.4753 36.0142 23.3908 34.2853 21.5911C32.5563 19.7914 31.6218 17.4171 31.6785 14.9683C31.7319 12.4283 32.8277 10.0115 34.7271 8.24451C36.6266 6.47748 39.1758 5.50354 41.8193 5.53491C44.4347 5.6153 46.9165 6.66412 48.7459 8.46216C50.5753 10.2601 51.6107 12.6681 51.6355 15.1827C51.5138 25.3177 51.6355 35.4528 51.6355 45.5878C51.6355 47.6343 51.6355 47.6733 49.5059 47.6733C43.1781 47.6733 36.8503 47.6733 30.5225 47.6733C27.3789 47.6733 26.3242 48.7063 26.3242 51.7664L26.3242 99.4789C26.3242 123.257 26.3242 147.016 26.3242 170.795C26.3245 172.093 26.055 173.378 25.5315 174.574C25.008 175.771 24.241 176.855 23.2756 177.762C22.3102 178.67 21.1658 179.384 19.9096 179.86C18.6534 180.337 17.3108 180.568 15.9604 180.54C13.5068 180.401 11.1951 179.389 9.47687 177.7C7.75864 176.011 6.75733 173.767 6.66861 171.407C6.5799 169.047 7.4101 166.739 8.99707 164.936C10.584 163.132 12.8138 161.962 15.2505 161.654C15.7373 161.654 16.224 161.654 16.6905 161.517C17.3816 161.404 18.0042 161.048 18.4368 160.518C18.8694 159.988 19.081 159.322 19.0304 158.65C18.9797 157.979 18.6704 157.349 18.1628 156.884C17.6552 156.42 16.9857 156.154 16.2849 156.138C15.2297 156.122 14.1776 156.253 13.1616 156.528C10.3156 157.118 7.70027 158.466 5.61524 160.419C3.53021 162.372 2.05988 164.85 1.37271 167.569C0.685529 170.288 0.809294 173.137 1.7299 175.792C2.6505 178.446 4.33067 180.797 6.57782 182.576C8.82496 184.355 11.5482 185.49 14.4354 185.85C17.3226 186.21 20.257 185.781 22.9023 184.613C25.5476 183.444 27.7967 181.583 29.392 179.242C30.9872 176.902 31.864 174.177 31.9219 171.379C32.0233 167.481 31.9219 163.583 31.9219 159.685L31.9219 104.274C31.9219 101.818 31.9219 101.798 34.3963 101.798C38.9393 101.798 43.4824 101.798 48.0254 101.798C51.9194 101.798 51.5138 101.272 51.5138 105.131L51.5138 488.645C51.5138 490.302 51.5138 490.36 49.7087 490.36C44.4356 490.36 39.1624 490.36 33.8892 490.36C32.0233 490.36 31.9828 490.243 31.8611 488.528L31.8611 423.274C31.8611 422.339 31.8611 421.325 31.8611 420.468C31.8146 417.555 30.8493 414.725 29.0929 412.352C27.3365 409.978 24.8717 408.173 22.0245 407.175C19.2472 405.993 16.1546 405.674 13.1797 406.265C10.2049 406.856 7.49666 408.326 5.43432 410.469C3.2188 412.46 1.69097 415.055 1.05642 417.905C0.421876 420.756 0.711059 423.724 1.88506 426.412C2.96361 429.125 4.85554 431.47 7.32141 433.149C9.78727 434.828 12.7162 435.767 15.7373 435.846C17.7654 435.846 19.0635 434.91 19.1243 433.312C19.1852 431.714 18.1103 430.817 16.1632 430.564C15.3575 430.474 14.5582 430.338 13.77 430.154C11.4327 429.561 9.40656 428.157 8.08116 426.214C6.75575 424.271 6.22479 421.926 6.59038 419.629C6.93305 417.456 8.03936 415.46 9.7255 413.975C11.4116 412.489 13.576 411.603 15.859 411.463C18.221 411.359 20.5435 412.073 22.4044 413.475C24.2652 414.877 25.5409 416.874 25.9997 419.103C26.1793 420.343 26.2269 421.597 26.1417 422.845L26.1417 538.775C26.1417 539.632 26.1417 540.49 26.1417 541.347C26.1656 542.061 26.4657 542.74 26.9834 543.252C27.5011 543.764 28.1991 544.072 28.9405 544.115C29.6154 544.169 30.2938 544.169 30.9687 544.115C37.0531 544.115 43.1376 544.115 49.222 544.115C51.4732 544.115 51.4935 544.115 51.4935 546.317L51.4935 577.268C51.5108 578.041 51.4359 578.812 51.2704 579.568C50.7157 581.794 49.3479 583.754 47.416 585.091C45.4841 586.429 43.1166 587.056 40.7444 586.858C38.4236 586.688 36.2385 585.741 34.5699 584.182C32.9013 582.622 31.8551 580.55 31.6137 578.325C31.3724 576.101 31.9511 573.865 33.249 572.009C34.547 570.152 36.4818 568.792 38.7162 568.166C39.819 567.923 40.9367 567.747 42.0626 567.64C42.7015 567.539 43.2731 567.2 43.653 566.697C44.0329 566.193 44.1903 565.565 44.0908 564.95C44.1104 564.636 44.0622 564.322 43.9492 564.026C43.8362 563.731 43.6609 563.462 43.4342 563.235C43.2075 563.008 42.9344 562.828 42.6321 562.707C42.3297 562.587 42.0046 562.528 41.6773 562.534C40.6267 562.469 39.5718 562.521 38.5337 562.689C35.1814 563.341 32.1419 565.026 29.8762 567.488C27.6106 569.951 26.2425 573.056 25.9795 576.333C25.7295 579.759 26.7197 583.163 28.7824 585.968C30.845 588.773 33.8533 590.806 37.2974 591.724C40.7416 592.641 44.4099 592.386 47.6808 591.002C50.9518 589.618 53.6243 587.19 55.2456 584.129C56.4893 581.584 57.087 578.792 56.9898 575.982L56.9898 296.45L56.9898 94.6454C56.9898 71.1788 56.9898 47.7123 56.9898 24.2458L56.9898 15.8259C57.0155 14.1904 56.783 12.5607 56.3002 10.9922C55.4852 8.24207 53.8603 5.77686 51.6211 3.89356C49.382 2.01032 46.624 0.789185 43.6794 0.377259C40.7349 -0.0346065 37.7291 0.38031 35.0242 1.57202C32.3193 2.76367 30.0306 4.68134 28.4335 7.09418L28.5957 7.15259ZM51.5138 521.701C51.5138 524.254 51.5138 526.827 51.5138 529.497C51.5138 532.167 51.5138 534.623 51.5138 537.196C51.5138 538.892 51.5138 538.95 49.7899 538.95C44.3747 538.95 38.9596 538.95 33.5647 538.95C32.2667 538.95 31.9219 538.424 31.9422 537.274C31.9422 532.128 31.9422 527.002 31.9422 521.876C31.9422 520.181 31.9422 520.122 33.6864 520.103C39.0948 520.103 44.4356 520.103 49.7087 520.103C51.4529 519.947 51.4935 519.986 51.5138 521.623L51.5138 521.701ZM49.6479 495.74C51.4327 495.74 51.4935 495.74 51.4935 497.377C51.4935 502.581 51.4935 507.804 51.4935 512.969C51.4935 514.256 50.9459 514.548 49.7493 514.548C44.4153 514.548 39.061 514.548 33.7067 514.548C32.0233 514.548 31.9624 514.548 31.9624 512.813L31.9624 497.396C31.9624 495.798 31.9625 495.759 33.8081 495.74C36.5664 495.74 39.3246 495.74 42.0626 495.74C44.6181 495.642 47.133 495.623 49.6479 495.662L49.6479 495.74ZM49.6479 77.5912C51.4327 77.5912 51.4935 77.5912 51.4935 79.2089C51.4935 84.4128 51.4935 89.6363 51.4935 94.8013C51.4935 96.0681 50.9257 96.3605 49.7493 96.3605C44.4153 96.3605 39.061 96.3605 33.7269 96.3605C32.0233 96.3605 31.9625 96.3605 31.9625 94.6259L31.9625 79.4623C31.9625 77.6302 31.9625 77.6107 33.9906 77.5132C36.5866 77.5132 39.1827 77.5132 41.7584 77.5132C44.4559 77.4937 47.0519 77.4742 49.6479 77.5132L49.6479 77.5912ZM51.5138 54.7679C51.5138 59.9913 51.5138 65.1953 51.5138 70.3602C51.5138 71.939 51.5138 71.9584 49.6682 71.9779C46.991 71.9779 44.3341 71.9779 41.657 71.9779C38.9798 71.9779 36.323 71.9779 33.5444 71.9779C32.2667 71.9779 31.8813 71.5102 31.9016 70.3408C31.9016 65.1173 31.9016 59.9133 31.9016 54.7484C31.9016 53.6764 32.2464 53.2281 33.4227 53.2281C38.9393 53.2281 44.4423 53.2281 49.9319 53.2281C51.2299 53.1501 51.5341 53.6569 51.5138 54.6899L51.5138 54.7679Z" fill="white" fill-opacity="0.2"/>
</svg>
