<svg width="40" height="426" viewBox="0 0 40 426" fill="none" xmlns="http://www.w3.org/2000/svg">
<path d="M20.1906 420.136C21.2511 418.546 21.852 416.709 21.9307 414.818C22.0094 412.926 21.5631 411.048 20.6383 409.381C19.7134 407.713 18.344 406.317 16.6727 405.337C15.0015 404.357 13.0898 403.83 11.1369 403.811C10.7892 403.761 10.4339 403.807 10.1117 403.943C9.78951 404.08 9.51339 404.301 9.31492 404.583C9.11644 404.864 9.00363 405.194 8.9893 405.534C8.97497 405.875 9.05973 406.213 9.23392 406.509C9.45759 406.868 9.7789 407.162 10.1628 407.356C10.5467 407.551 10.9784 407.64 11.4108 407.613C13.2196 407.714 14.9173 408.492 16.1463 409.782C17.3753 411.073 18.0396 412.775 17.9993 414.531C17.9614 416.353 17.1824 418.086 15.8322 419.353C14.482 420.62 12.67 421.319 10.7909 421.296C8.93179 421.238 7.16763 420.486 5.86723 419.197C4.56683 417.908 3.83087 416.181 3.81322 414.378C3.89972 407.11 3.81322 399.842 3.81322 392.574C3.81322 391.106 3.81325 391.078 5.327 391.078C9.82502 391.078 14.323 391.078 18.821 391.078C21.0556 391.078 21.8053 390.338 21.8053 388.143L21.8053 353.929C21.8053 336.877 21.8053 319.839 21.8053 302.788C21.8051 301.857 21.9966 300.936 22.3688 300.078C22.7409 299.22 23.2861 298.442 23.9723 297.791C24.6586 297.14 25.4721 296.629 26.365 296.287C27.2579 295.945 28.2124 295.779 29.1722 295.8C30.9163 295.899 32.5596 296.625 33.7809 297.836C35.0023 299.047 35.7141 300.656 35.7771 302.349C35.8402 304.042 35.2501 305.696 34.122 306.99C32.9939 308.283 31.409 309.122 29.6768 309.343C29.3308 309.343 28.9848 309.343 28.6533 309.441C28.162 309.522 27.7195 309.777 27.4119 310.157C27.1044 310.537 26.954 311.015 26.99 311.497C27.026 311.978 27.2459 312.43 27.6067 312.763C27.9675 313.096 28.4434 313.287 28.9416 313.298C29.6917 313.31 30.4395 313.215 31.1617 313.019C33.1847 312.596 35.0438 311.628 36.5259 310.228C38.008 308.828 39.0532 307.051 39.5416 305.101C40.0301 303.152 39.9421 301.108 39.2877 299.204C38.6333 297.301 37.439 295.615 35.8417 294.339C34.2443 293.064 32.3086 292.25 30.2563 291.992C28.2039 291.733 26.118 292.041 24.2377 292.879C22.3573 293.717 20.7586 295.052 19.6246 296.73C18.4907 298.409 17.8674 300.363 17.8263 302.369C17.7542 305.164 17.8263 307.959 17.8263 310.755L17.8263 350.49C17.8263 352.251 17.8263 352.265 16.0674 352.265C12.8381 352.265 9.60874 352.265 6.37939 352.265C3.61138 352.265 3.89971 352.643 3.89971 349.875L3.89973 74.8567C3.89973 73.6687 3.89975 73.6267 5.18284 73.6267C8.93119 73.6267 12.6795 73.6267 16.4279 73.6267C17.7542 73.6267 17.783 73.7106 17.8695 74.9405L17.8695 121.734C17.8695 122.405 17.8695 123.132 17.8695 123.747C17.9026 125.835 18.5887 127.865 19.8372 129.567C21.0857 131.269 22.8378 132.563 24.8617 133.279C26.8359 134.127 29.0342 134.355 31.1488 133.932C33.2635 133.508 35.1885 132.454 36.6545 130.917C38.2294 129.489 39.3154 127.628 39.7665 125.584C40.2175 123.54 40.012 121.411 39.1775 119.484C38.4108 117.539 37.0659 115.857 35.3131 114.653C33.5603 113.449 31.4784 112.776 29.3308 112.719C27.8892 112.719 26.9665 113.39 26.9232 114.536C26.88 115.682 27.6441 116.325 29.0281 116.507C29.6008 116.571 30.169 116.669 30.7293 116.801C32.3906 117.226 33.8309 118.233 34.7731 119.626C35.7152 121.019 36.0926 122.701 35.8328 124.348C35.5892 125.907 34.8028 127.338 33.6042 128.403C32.4056 129.468 30.8671 130.104 29.2444 130.204C27.5653 130.279 25.9144 129.767 24.5916 128.761C23.2689 127.756 22.3621 126.324 22.036 124.725C21.9083 123.837 21.8745 122.937 21.9351 122.042L21.9351 38.9087C21.9351 38.2938 21.9351 37.6788 21.9351 37.0638C21.9181 36.5522 21.7047 36.0651 21.3367 35.698C20.9687 35.3309 20.4726 35.1102 19.9456 35.0791C19.4658 35.0402 18.9836 35.0402 18.5039 35.0791C14.1789 35.0791 9.85384 35.0791 5.52883 35.0791C3.92857 35.0791 3.91416 35.0791 3.91416 33.4998L3.91416 11.3048C3.90189 10.751 3.95508 10.1977 4.07272 9.6556C4.46706 8.05977 5.43936 6.65425 6.8126 5.69487C8.18584 4.7355 9.86873 4.28605 11.555 4.42833C13.2046 4.54997 14.7579 5.22907 15.944 6.34722C17.1301 7.46536 17.8738 8.95161 18.0454 10.5469C18.2169 12.1421 17.8056 13.7452 16.8829 15.0765C15.9603 16.4078 14.5849 17.383 12.9967 17.8319C12.2128 18.0064 11.4183 18.1324 10.6179 18.2093C10.1638 18.2814 9.75747 18.5246 9.48744 18.8859C9.21741 19.2472 9.10555 19.6972 9.17626 20.1381C9.16229 20.3633 9.19656 20.5889 9.27688 20.8006C9.3572 21.0124 9.48183 21.2057 9.64297 21.3685C9.80411 21.5313 9.99823 21.66 10.2132 21.7465C10.4281 21.833 10.6592 21.8754 10.8919 21.8712C11.6387 21.9177 12.3885 21.8802 13.1264 21.7594C15.5093 21.2919 17.6699 20.0837 19.2804 18.3181C20.8909 16.5524 21.8634 14.3257 22.0504 11.9757C22.228 9.51875 21.5242 7.0778 20.058 5.06638C18.5918 3.05496 16.4534 1.59674 14.0052 0.938811C11.557 0.28088 8.94945 0.463689 6.62434 1.45624C4.29922 2.44879 2.39952 4.19005 1.24706 6.38505C0.363006 8.20999 -0.0618863 10.2122 0.00724358 12.2273L0.00723443 212.68L0.00722783 357.395C0.00722707 374.223 0.0072263 391.051 0.00722553 407.878L0.00722526 413.916C-0.0110739 415.089 0.15419 416.258 0.497387 417.383C1.07674 419.355 2.23176 421.123 3.82342 422.473C5.41508 423.824 7.37553 424.699 9.46864 424.995C11.5617 425.29 13.6983 424.992 15.621 424.138C17.5438 423.283 19.1707 421.908 20.306 420.178L20.1906 420.136ZM3.89973 51.1523C3.89973 49.3213 3.89973 47.4764 3.89973 45.5616C3.89973 43.6468 3.89973 41.8858 3.89973 40.0408C3.89973 38.8249 3.89974 38.7829 5.12516 38.7829C8.97443 38.7829 12.8237 38.7829 16.6585 38.7829C17.5812 38.7829 17.8263 39.1603 17.8119 39.9849C17.8119 43.6748 17.8119 47.3506 17.8119 51.0265C17.8119 52.2425 17.8119 52.2844 16.572 52.2984C12.7276 52.2984 8.93119 52.2984 5.18284 52.2984C3.943 52.4102 3.91414 52.3822 3.89973 51.2082L3.89973 51.1523ZM5.22609 69.7692C3.95741 69.7692 3.91416 69.7692 3.91416 68.5952C3.91416 64.8634 3.91416 61.1176 3.91416 57.4138C3.91416 56.4914 4.30339 56.2817 5.15398 56.2817C8.94558 56.2817 12.7516 56.2817 16.5576 56.2817C17.7542 56.2817 17.7975 56.2817 17.7975 57.5256L17.7975 68.5812C17.7975 69.7272 17.7975 69.7552 16.4855 69.7692C14.5249 69.7692 12.5642 69.7692 10.6179 69.7692C8.80142 69.8391 7.01376 69.853 5.22609 69.8251L5.22609 69.7692ZM5.22607 369.624C3.9574 369.624 3.91414 369.624 3.91414 368.464C3.91415 364.733 3.91415 360.987 3.91415 357.283C3.91415 356.374 4.31779 356.165 5.15396 356.165C8.94556 356.165 12.7516 356.165 16.5432 356.165C17.7542 356.165 17.7975 356.165 17.7975 357.409L17.7975 368.283C17.7975 369.596 17.7975 369.61 16.3558 369.68C14.5104 369.68 12.6651 369.68 10.8342 369.68C8.91673 369.694 7.07141 369.708 5.22607 369.68L5.22607 369.624ZM3.89971 385.991C3.89971 382.245 3.89971 378.513 3.89971 374.81C3.89971 373.678 3.89972 373.664 5.21164 373.65C7.11465 373.65 9.00326 373.65 10.9063 373.65C12.8093 373.65 14.6979 373.65 16.673 373.65C17.5812 373.65 17.8551 373.985 17.8407 374.824C17.8407 378.569 17.8407 382.301 17.8407 386.005C17.8407 386.774 17.5956 387.095 16.7595 387.095C12.8381 387.095 8.92634 387.095 5.02422 387.095C4.10154 387.151 3.8853 386.788 3.89971 386.047L3.89971 385.991Z" fill="white" fill-opacity="0.2"/>
</svg>
