<svg width="57" height="593" viewBox="0 0 57 593" fill="none" xmlns="http://www.w3.org/2000/svg">
<path d="M28.4043 585.335C29.8961 583.118 30.7414 580.556 30.8522 577.918C30.9629 575.28 30.335 572.662 29.034 570.336C27.7329 568.011 25.8063 566.064 23.4553 564.698C21.1042 563.332 18.4148 562.597 15.6675 562.57C15.1783 562.5 14.6784 562.564 14.2252 562.754C13.7719 562.945 13.3835 563.254 13.1043 563.646C12.8251 564.038 12.6664 564.498 12.6462 564.973C12.626 565.448 12.7453 565.919 12.9903 566.332C13.305 566.833 13.757 567.242 14.2971 567.514C14.8372 567.785 15.4445 567.909 16.0528 567.871C18.5974 568.012 20.9857 569.097 22.7147 570.896C24.4437 572.696 25.3782 575.07 25.3214 577.519C25.2681 580.059 24.1723 582.476 22.2728 584.243C20.3734 586.01 17.8241 586.984 15.1807 586.953C12.5653 586.872 10.0835 585.823 8.25407 584.025C6.42466 582.227 5.38931 579.819 5.36448 577.305C5.48617 567.17 5.36448 557.035 5.36448 546.9C5.36448 544.853 5.36452 544.814 7.49407 544.814C13.8219 544.814 20.1497 544.814 26.4775 544.814C29.6211 544.814 30.6758 543.781 30.6758 540.721L30.6758 493.009C30.6758 469.23 30.6758 445.471 30.6758 421.693C30.6755 420.395 30.9449 419.11 31.4685 417.913C31.992 416.717 32.759 415.633 33.7244 414.725C34.6898 413.817 35.8342 413.104 37.0904 412.627C38.3466 412.15 39.6892 411.919 41.0396 411.948C43.4932 412.086 45.8049 413.099 47.5231 414.788C49.2413 416.476 50.2427 418.72 50.3314 421.081C50.4201 423.441 49.5899 425.748 48.0029 427.552C46.4159 429.356 44.1862 430.526 41.7494 430.834C41.2627 430.834 40.7759 430.834 40.3095 430.97C39.6184 431.083 38.9958 431.439 38.5632 431.969C38.1306 432.499 37.919 433.165 37.9696 433.837C38.0203 434.509 38.3296 435.139 38.8372 435.603C39.3448 436.068 40.0143 436.334 40.7151 436.35C41.7703 436.365 42.8224 436.234 43.8384 435.96C46.6844 435.37 49.2997 434.021 51.3847 432.068C53.4698 430.115 54.9401 427.638 55.6273 424.919C56.3145 422.2 56.1907 419.35 55.2701 416.696C54.3495 414.041 52.6693 411.69 50.4222 409.911C48.175 408.132 45.4518 406.997 42.5646 406.637C39.6774 406.277 36.7429 406.706 34.0977 407.875C31.4524 409.043 29.2032 410.905 27.608 413.245C26.0128 415.586 25.136 418.311 25.0781 421.108C24.9767 425.006 25.0781 428.904 25.0781 432.802L25.0781 488.214C25.0781 490.67 25.0781 490.689 22.6037 490.689C18.0607 490.689 13.5176 490.689 8.97458 490.689C5.08054 490.689 5.48616 491.215 5.48616 487.356L5.48618 103.842C5.48618 102.186 5.48621 102.127 7.29126 102.127C12.5644 102.127 17.8376 102.127 23.1108 102.127C24.9767 102.127 25.0172 102.244 25.1389 103.959L25.1389 169.213C25.1389 170.149 25.1389 171.162 25.1389 172.02C25.1854 174.932 26.1507 177.762 27.9071 180.136C29.6635 182.509 32.1283 184.314 34.9755 185.312C37.7528 186.495 40.8454 186.813 43.8202 186.222C46.7951 185.632 49.5033 184.162 51.5657 182.019C53.7812 180.028 55.309 177.433 55.9436 174.582C56.5781 171.732 56.2889 168.763 55.1149 166.075C54.0364 163.362 52.1445 161.018 49.6786 159.338C47.2127 157.659 44.2838 156.721 41.2627 156.642C39.2346 156.642 37.9365 157.578 37.8757 159.176C37.8148 160.774 38.8897 161.671 40.8368 161.924C41.6425 162.013 42.4418 162.15 43.23 162.333C45.5673 162.927 47.5934 164.33 48.9188 166.273C50.2442 168.216 50.7752 170.562 50.4096 172.858C50.0669 175.032 48.9606 177.027 47.2745 178.513C45.5884 179.998 43.424 180.885 41.141 181.025C38.779 181.128 36.4564 180.414 34.5956 179.012C32.7348 177.61 31.4591 175.613 31.0003 173.384C30.8207 172.145 30.7731 170.891 30.8583 169.642L30.8583 53.7129C30.8583 52.8553 30.8583 51.9977 30.8583 51.1401C30.8344 50.4266 30.5343 49.7474 30.0166 49.2355C29.4989 48.7236 28.8009 48.4158 28.0595 48.3725C27.3846 48.3182 26.7062 48.3182 26.0313 48.3725C19.9469 48.3725 13.8624 48.3725 7.778 48.3725C5.52676 48.3725 5.50649 48.3725 5.50649 46.1701L5.50649 15.2192C5.48923 14.4469 5.56406 13.6753 5.72956 12.9193C6.28431 10.694 7.65213 8.73395 9.58401 7.3961C11.5159 6.05825 13.8834 5.4315 16.2556 5.6299C18.5764 5.79953 20.7615 6.74653 22.4301 8.30579C24.0987 9.86505 25.1449 11.9376 25.3863 14.1622C25.6276 16.3868 25.0489 18.6222 23.751 20.4788C22.453 22.3353 20.5182 23.6952 18.2838 24.3212C17.181 24.5645 16.0633 24.7403 14.9374 24.8475C14.2985 24.9481 13.7269 25.2872 13.347 25.791C12.9671 26.2948 12.8097 26.9224 12.9092 27.5372C12.8896 27.8512 12.9378 28.1658 13.0508 28.4611C13.1638 28.7564 13.3391 29.026 13.5658 29.253C13.7925 29.48 14.0656 29.6595 14.3679 29.7801C14.6703 29.9007 14.9954 29.9599 15.3227 29.954C16.3733 30.0189 17.4282 29.9665 18.4663 29.7981C21.8186 29.1462 24.8581 27.4614 27.1238 24.9992C29.3894 22.537 30.7575 19.4318 31.0205 16.1547C31.2705 12.7285 30.2803 9.32459 28.2176 6.51966C26.155 3.71473 23.1467 1.68125 19.7026 0.763765C16.2584 -0.153721 12.5901 0.101206 9.31917 1.48532C6.04819 2.86943 3.37568 5.29763 1.75441 8.35855C0.510719 10.9034 -0.0870177 13.6956 0.0102265 16.5056L0.0102137 296.038L0.0102045 497.842C0.0102034 521.309 0.0102024 544.775 0.0102013 568.242L0.0102009 576.662C-0.0155407 578.297 0.216954 579.927 0.699764 581.495C1.5148 584.245 3.13968 586.711 5.37884 588.594C7.61799 590.477 10.3759 591.698 13.3205 592.11C16.2651 592.522 19.2708 592.107 21.9757 590.915C24.6807 589.724 26.9694 587.806 28.5665 585.393L28.4043 585.335ZM5.48618 70.7865C5.48618 68.2333 5.48618 65.6605 5.48618 62.9903C5.48618 60.3201 5.48618 57.8643 5.48618 55.2916C5.48618 53.5959 5.4862 53.5375 7.21012 53.5375C12.6253 53.5375 18.0404 53.5375 23.4353 53.5375C24.7333 53.5375 25.0781 54.0637 25.0578 55.2136C25.0578 60.3591 25.0578 65.4851 25.0578 70.6111C25.0578 72.3068 25.0578 72.3653 23.3136 72.3847C17.9052 72.3847 12.5644 72.3847 7.29126 72.3847C5.54706 72.5407 5.50647 72.5017 5.48618 70.8645L5.48618 70.7865ZM7.35211 96.7478C5.56734 96.7478 5.50648 96.7478 5.50648 95.1106C5.50648 89.9067 5.50648 84.6832 5.50649 79.5183C5.50649 78.2319 6.05405 77.9395 7.25066 77.9395C12.5847 77.9395 17.939 77.9395 23.2933 77.9395C24.9767 77.9395 25.0375 77.9395 25.0375 79.6742L25.0375 95.0911C25.0375 96.6893 25.0375 96.7283 23.1919 96.7478C20.4336 96.7478 17.6754 96.7478 14.9374 96.7478C12.3819 96.8453 9.86701 96.8648 7.35211 96.8258L7.35211 96.7478ZM7.35209 514.896C5.56732 514.896 5.50647 514.896 5.50647 513.279C5.50647 508.075 5.50647 502.851 5.50647 497.686C5.50647 496.419 6.07432 496.127 7.25064 496.127C12.5847 496.127 17.939 496.127 23.2731 496.127C24.9767 496.127 25.0375 496.127 25.0375 497.862L25.0375 513.025C25.0375 514.857 25.0375 514.877 23.0094 514.974C20.4134 514.974 17.8173 514.974 15.2415 514.974C12.5441 514.994 9.94812 515.013 7.35209 514.974L7.35209 514.896ZM5.48616 537.72C5.48616 532.496 5.48616 527.292 5.48616 522.127C5.48616 520.549 5.48617 520.529 7.33179 520.51C10.0089 520.51 12.6658 520.51 15.343 520.51C18.0201 520.51 20.677 520.51 23.4556 520.51C24.7333 520.51 25.1187 520.977 25.0984 522.147C25.0984 527.37 25.0984 532.574 25.0984 537.739C25.0984 538.811 24.7536 539.259 23.5773 539.259C18.0607 539.259 12.5576 539.259 7.06812 539.259C5.7701 539.337 5.46588 538.831 5.48616 537.798L5.48616 537.72Z" fill="white" fill-opacity="0.2"/>
</svg>
