<svg width="32" height="32" viewBox="0 0 32 32" fill="none" xmlns="http://www.w3.org/2000/svg">
<circle cx="16" cy="16" r="16" transform="rotate(-180 16 16)" fill="#CAAB2A"/>
<path d="M15.9997 11.5542C16.4495 11.5542 16.8797 11.7613 17.1784 12.1249L20.9233 16.6564C21.3713 17.1995 21.4611 17.9702 21.1535 18.6218C20.8824 19.1969 20.3428 19.5542 19.7446 19.5542L12.2548 19.5542C11.6566 19.5542 11.1171 19.1969 10.846 18.6218C10.5384 17.9702 10.6282 17.1995 11.0753 16.6573L14.8211 12.1249C15.1197 11.7613 15.55 11.5542 15.9997 11.5542Z" fill="white"/>
<mask id="mask0_0_345" style="mask-type:alpha" maskUnits="userSpaceOnUse" x="10" y="11" width="12" height="9">
<path d="M15.9997 11.5542C16.4495 11.5542 16.8797 11.7613 17.1784 12.1249L20.9233 16.6564C21.3713 17.1995 21.4611 17.9702 21.1535 18.6218C20.8824 19.1969 20.3428 19.5542 19.7446 19.5542L12.2548 19.5542C11.6566 19.5542 11.1171 19.1969 10.846 18.6218C10.5384 17.9702 10.6282 17.1995 11.0753 16.6573L14.8211 12.1249C15.1197 11.7613 15.55 11.5542 15.9997 11.5542Z" fill="white"/>
</mask>
<g mask="url(#mask0_0_345)">
</g>
</svg>
