<svg width="64" height="64" viewBox="0 0 64 64" fill="none" xmlns="http://www.w3.org/2000/svg">
<path d="M40.6666 35.9999H30C28.896 35.9999 28 35.1039 28 33.9999V17.9999C28 16.8959 28.896 15.9999 30 15.9999C31.104 15.9999 32 16.8959 32 17.9999V31.9999H40.6666C41.7706 31.9999 42.6666 32.8959 42.6666 33.9999C42.6666 35.1039 41.7706 35.9999 40.6666 35.9999ZM32 5.33325C17.2746 5.33325 5.33331 17.2746 5.33331 31.9999C5.33331 46.7253 17.2746 58.6666 32 58.6666C46.7253 58.6666 58.6666 46.7253 58.6666 31.9999C58.6666 17.2746 46.7253 5.33325 32 5.33325Z" fill="white"/>
</svg>
