<svg width="21" height="20" viewBox="0 0 21 20" fill="none" xmlns="http://www.w3.org/2000/svg">
<path d="M14.6665 8.74859C15.0977 8.74972 15.5248 8.66937 15.9232 8.5122C16.3215 8.35503 16.6832 8.12416 16.9872 7.83296L20.1454 4.8271C20.3952 4.58921 20.4181 4.2021 20.1802 3.95249C20.1205 3.88978 20.048 3.83928 19.9672 3.80405C19.8864 3.76882 19.7989 3.7496 19.71 3.74756C19.6211 3.74551 19.5327 3.76068 19.4502 3.79215C19.3677 3.82362 19.2927 3.87073 19.2299 3.93062L16.415 6.60952C16.3205 6.69943 16.1924 6.74993 16.0588 6.74993C15.9252 6.74993 15.7971 6.69943 15.7026 6.60952C15.5061 6.42281 15.5168 6.10718 15.7128 5.92046L18.5154 3.25132C18.5782 3.19149 18.6276 3.12013 18.6607 3.04157C18.6937 2.96301 18.7096 2.87888 18.7074 2.79429C18.7053 2.7097 18.6851 2.62641 18.6482 2.54946C18.6112 2.47251 18.5582 2.40351 18.4924 2.34663C18.3737 2.24404 18.2188 2.18759 18.0585 2.18843C17.8768 2.18855 17.7025 2.2574 17.5741 2.37984L14.774 5.04624C14.6795 5.13615 14.5513 5.18665 14.4178 5.18665C14.2842 5.18665 14.156 5.13615 14.0615 5.04624C13.8655 4.85953 13.8757 4.5439 14.0718 4.35718L16.8744 1.68882C16.9372 1.62899 16.9866 1.55763 17.0196 1.47907C17.0526 1.40051 17.0685 1.31638 17.0664 1.23179C17.0642 1.1472 17.0441 1.06391 17.0071 0.98696C16.9702 0.910011 16.9172 0.841008 16.8514 0.784135C16.7326 0.681542 16.5778 0.625092 16.4175 0.625932C16.2358 0.626137 16.0616 0.694972 15.9331 0.817339L12.7769 3.8232C12.4711 4.11279 12.2287 4.45729 12.0637 4.83674C11.8986 5.21618 11.8143 5.62304 11.8155 6.03374V6.35523C11.8156 6.43742 11.7986 6.51882 11.7656 6.59476C11.7326 6.67071 11.6842 6.73971 11.6232 6.79781L10.1626 8.18921C10.1473 8.20374 10.1293 8.21526 10.1093 8.22313C10.0894 8.23099 10.0681 8.23504 10.0465 8.23504C10.025 8.23504 10.0036 8.23099 9.98369 8.22313C9.96377 8.21526 9.94567 8.20374 9.93044 8.18921L2.82325 1.42007C2.70059 1.30312 2.53427 1.23721 2.36069 1.23677C2.18712 1.23633 2.02043 1.3014 1.89712 1.41773C1.27573 2.00406 0.943915 2.83179 0.943915 3.81109C0.939814 5.42827 1.83231 7.28765 3.27319 8.65796L6.77798 11.9959C7.27611 12.4693 7.9511 12.7352 8.65485 12.7353C8.87921 12.7354 9.10265 12.7081 9.31972 12.6541C9.37422 12.6405 9.43031 12.6335 9.48665 12.6334C9.6514 12.6334 9.81005 12.6927 9.93085 12.7994L10.398 13.2103C10.5185 13.3275 10.5862 13.4849 10.5867 13.649V13.8654C10.5855 14.3573 10.7885 14.8298 11.1515 15.1798L14.8449 18.7568L14.8486 18.7607C15.2586 19.1511 15.8145 19.3703 16.3942 19.3703C16.9739 19.3703 17.5299 19.1509 17.9398 18.7605C18.3496 18.3701 18.5799 17.8406 18.5799 17.2885C18.5798 16.7364 18.3495 16.2069 17.9396 15.8166L12.4033 10.5439C12.388 10.5294 12.3759 10.5122 12.3677 10.4932C12.3594 10.4742 12.3552 10.4539 12.3552 10.4334C12.3552 10.4128 12.3594 10.3925 12.3677 10.3735C12.3759 10.3545 12.388 10.3373 12.4033 10.3228L13.8638 8.93179C13.9248 8.8737 13.9972 8.82762 14.0768 8.79618C14.1565 8.76475 14.2419 8.74857 14.3281 8.74859H14.6665Z" fill="#080809"/>
<path d="M8.65428 13.9866C7.6036 13.9845 6.59614 13.588 5.85046 12.8831L5.28198 12.3417C5.22047 12.2832 5.13713 12.2504 5.05024 12.2504C4.96336 12.2504 4.88002 12.2832 4.8185 12.3417L1.33218 15.6448C0.71079 16.2366 0.488896 17.1077 0.796513 17.9608C0.81373 18.0089 0.834142 18.0558 0.857626 18.1014C1.27147 18.9084 2.07456 19.3772 2.95311 19.3772C3.25525 19.3779 3.55453 19.3215 3.83361 19.2113C4.1127 19.101 4.36605 18.9392 4.57897 18.735L9.2285 14.2858C9.24807 14.2668 9.26306 14.2439 9.27241 14.2188C9.28176 14.1937 9.28525 14.167 9.28264 14.1405V14.1303C9.28082 14.106 9.27383 14.0822 9.26211 14.0605C9.25039 14.0388 9.23417 14.0195 9.21443 14.004C9.19469 13.9884 9.17184 13.9768 9.14727 13.9698C9.12269 13.9629 9.09688 13.9607 9.07141 13.9635C8.93289 13.9782 8.79365 13.9858 8.65428 13.9866Z" fill="#080809"/>
</svg>
