<svg width="58" height="58" viewBox="0 0 58 58" fill="none" xmlns="http://www.w3.org/2000/svg">
<path fill-rule="evenodd" clip-rule="evenodd" d="M58 29C58 45.0163 45.0163 58 29 58C12.9837 58 0 45.0163 0 29C0 12.9837 12.9837 0 29 0C45.0163 0 58 12.9837 58 29ZM34.2538 27.248C34.8492 27.2496 35.439 27.1371 35.9891 26.9171C36.5392 26.697 37.0386 26.3738 37.4585 25.9661L41.8198 21.7579C42.1647 21.4249 42.1965 20.8829 41.868 20.5335C41.7855 20.4457 41.6854 20.375 41.5738 20.3257C41.4621 20.2764 41.3413 20.2494 41.2186 20.2466C41.0958 20.2437 40.9738 20.265 40.8598 20.309C40.7459 20.3531 40.6424 20.419 40.5556 20.5029L36.6683 24.2533C36.5378 24.3792 36.3609 24.4499 36.1764 24.4499C35.9919 24.4499 35.815 24.3792 35.6845 24.2533C35.4132 23.9919 35.4279 23.55 35.6987 23.2886L39.5689 19.5518C39.6557 19.4681 39.7239 19.3682 39.7695 19.2582C39.815 19.1482 39.837 19.0304 39.834 18.912C39.8311 18.7936 39.8032 18.677 39.7522 18.5692C39.7012 18.4615 39.628 18.3649 39.5372 18.2853C39.3732 18.1417 39.1594 18.0626 38.9379 18.0638C38.687 18.064 38.4464 18.1604 38.269 18.3318L34.4021 22.0647C34.2716 22.1906 34.0947 22.2613 33.9102 22.2613C33.7258 22.2613 33.5488 22.1906 33.4183 22.0647C33.1476 21.8033 33.1617 21.3615 33.4325 21.1L37.3027 17.3643C37.3895 17.2806 37.4577 17.1807 37.5033 17.0707C37.5489 16.9607 37.5708 16.8429 37.5679 16.7245C37.5649 16.6061 37.5371 16.4895 37.486 16.3817C37.435 16.274 37.3618 16.1774 37.271 16.0978C37.107 15.9542 36.8932 15.8751 36.6717 15.8763C36.4208 15.8766 36.1802 15.973 36.0028 16.1443L31.6443 20.3525C31.222 20.7579 30.8873 21.2402 30.6594 21.7714C30.4315 22.3027 30.315 22.8722 30.3167 23.4472V23.8973C30.3168 24.0124 30.2933 24.1263 30.2478 24.2327C30.2022 24.339 30.1353 24.4356 30.051 24.5169L28.034 26.4649C28.013 26.4852 27.988 26.5014 27.9605 26.5124C27.933 26.5234 27.9035 26.529 27.8738 26.529C27.844 26.529 27.8145 26.5234 27.787 26.5124C27.7595 26.5014 27.7345 26.4852 27.7135 26.4649L17.8988 16.9881C17.7294 16.8244 17.4997 16.7321 17.26 16.7315C17.0203 16.7309 16.7901 16.822 16.6198 16.9848C15.7617 17.8057 15.3035 18.9645 15.3035 20.3355C15.2978 22.5996 16.5303 25.2027 18.5201 27.1211L23.3601 31.7942C24.048 32.457 24.9801 32.8293 25.9519 32.8294C26.2618 32.8295 26.5703 32.7913 26.8701 32.7157C26.9453 32.6966 27.0228 32.6869 27.1006 32.6867C27.3281 32.6867 27.5472 32.7697 27.714 32.9191L28.3592 33.4944C28.5256 33.6586 28.619 33.8789 28.6197 34.1086V34.4115C28.6181 35.1003 28.8984 35.7617 29.3997 36.2518L34.5001 41.2595L34.5052 41.265C35.0713 41.8115 35.8391 42.1185 36.6397 42.1184C37.4402 42.1184 38.2079 41.8113 38.774 41.2647C39.34 40.7181 39.658 39.9768 39.6579 39.2039C39.6578 38.4309 39.3398 37.6897 38.7737 37.1432L31.1283 29.7615C31.1073 29.7411 31.0905 29.717 31.0791 29.6905C31.0677 29.6639 31.0619 29.6354 31.0619 29.6067C31.0619 29.5779 31.0677 29.5495 31.0791 29.5229C31.0905 29.4964 31.1073 29.4722 31.1283 29.4519L33.1453 27.5045C33.2295 27.4232 33.3294 27.3587 33.4394 27.3147C33.5495 27.2706 33.6674 27.248 33.7865 27.248H34.2538ZM22.0792 33.0363C23.109 34.0232 24.5002 34.5783 25.9512 34.5812C26.1436 34.5802 26.3359 34.5694 26.5272 34.5489C26.5624 34.545 26.598 34.548 26.6319 34.5577C26.6659 34.5675 26.6974 34.5837 26.7247 34.6055C26.7519 34.6274 26.7743 34.6543 26.7905 34.6847C26.8067 34.7151 26.8164 34.7484 26.8189 34.7825V34.7967C26.8225 34.8338 26.8177 34.8712 26.8048 34.9064C26.7918 34.9415 26.7711 34.9735 26.7441 35.0001L20.3233 41.229C20.0293 41.5148 19.6794 41.7415 19.294 41.8958C18.9086 42.0501 18.4953 42.1291 18.0781 42.1281C16.8649 42.1281 15.7558 41.4718 15.1843 40.342C15.1519 40.2782 15.1237 40.2124 15.0999 40.1451C14.6751 38.9507 14.9816 37.7312 15.8397 36.9027L20.6541 32.2783C20.7391 32.1965 20.8542 32.1505 20.9741 32.1505C21.0941 32.1505 21.2092 32.1965 21.2942 32.2783L22.0792 33.0363Z" fill="white"/>
</svg>
