<svg width="12" height="14" viewBox="0 0 12 14" fill="none" xmlns="http://www.w3.org/2000/svg">
<path d="M10.1047 10.2549L9.31334 11.0375C8.73008 11.6099 7.97333 12.3459 7.04277 13.2456C6.46127 13.8078 5.53872 13.8078 4.95731 13.2454L2.62992 10.9815C2.33741 10.6943 2.09256 10.4521 1.89533 10.2549C-0.371606 7.98795 -0.371606 4.31251 1.89533 2.04557C4.16227 -0.221368 7.83771 -0.221368 10.1047 2.04557C12.3716 4.31251 12.3716 7.98795 10.1047 10.2549ZM7.66679 6.33336C7.66679 5.41282 6.92054 4.66656 5.99999 4.66656C5.07945 4.66656 4.33319 5.41282 4.33319 6.33336C4.33319 7.25391 5.07945 8.00016 5.99999 8.00016C6.92054 8.00016 7.66679 7.25391 7.66679 6.33336Z" fill="white"/>
</svg>
