<svg width="58" height="58" viewBox="0 0 58 58" fill="none" xmlns="http://www.w3.org/2000/svg">
<path fill-rule="evenodd" clip-rule="evenodd" d="M58 29C58 45.0163 45.0163 58 29 58C12.9837 58 0 45.0163 0 29C0 12.9837 12.9837 0 29 0C45.0163 0 58 12.9837 58 29ZM18.415 26.3591C18.415 20.4992 23.2287 15.7324 29.145 15.7324C35.0612 15.7324 39.875 20.4992 39.875 26.3591C39.875 33.7011 30.4205 41.8894 30.0181 42.2341C29.766 42.4501 29.4562 42.5574 29.145 42.5574C28.8338 42.5574 28.524 42.4501 28.2718 42.2341C27.8695 41.8894 18.415 33.7011 18.415 26.3591ZM29.145 30.4861C26.5564 30.4861 24.4506 28.3803 24.4506 25.7917C24.4506 23.2031 26.5564 21.0973 29.145 21.0973C31.7336 21.0973 33.8394 23.2031 33.8394 25.7917C33.8394 28.3803 31.7336 30.4861 29.145 30.4861ZM29.145 23.7799C28.0358 23.7799 27.1331 24.6825 27.1331 25.7918C27.1331 26.901 28.0358 27.8036 29.145 27.8036C30.2542 27.8036 31.1569 26.901 31.1569 25.7918C31.1569 24.6825 30.2542 23.7799 29.145 23.7799Z" fill="white"/>
</svg>
