<svg width="16" height="16" viewBox="0 0 16 16" fill="none" xmlns="http://www.w3.org/2000/svg">
<path d="M5.18117 1.62615L5.89889 1.39682C6.57144 1.18192 7.29001 1.52922 7.57802 2.20838L8.15118 3.55994C8.40095 4.14891 8.26235 4.84151 7.80853 5.27226L6.54565 6.47094C6.62357 7.18792 6.86458 7.89392 7.26867 8.58893C7.67276 9.28394 8.17744 9.86048 8.78271 10.3185L10.2995 9.81274C10.8744 9.62102 11.5006 9.84135 11.8532 10.3595L12.6748 11.5665C13.0847 12.1688 13.011 12.9997 12.5023 13.5104L11.9572 14.0576C11.4146 14.6024 10.6396 14.8 9.92262 14.5763C8.23005 14.0484 6.67384 12.4809 5.25399 9.87393C3.83208 7.26315 3.33024 5.04809 3.74849 3.22875C3.92449 2.46321 4.4695 1.85356 5.18117 1.62615Z" fill="white"/>
</svg>
