<svg width="32" height="32" viewBox="0 0 32 32" fill="none" xmlns="http://www.w3.org/2000/svg">
<path fill-rule="evenodd" clip-rule="evenodd" d="M16 32C24.8366 32 32 24.8366 32 16C32 7.16344 24.8366 0 16 0C7.16344 0 0 7.16344 0 16C0 24.8366 7.16344 32 16 32ZM17.2398 19.1609L18.4134 17.6935C18.5512 17.5218 18.742 17.4006 18.9559 17.3487C19.1699 17.2968 19.395 17.3171 19.5962 17.4065L22.6072 18.7452C22.823 18.8411 22.9977 19.0104 23.1003 19.223C23.2028 19.4357 23.2266 19.6778 23.1674 19.9063L22.5069 22.4504C22.445 22.6879 22.2982 22.8944 22.0942 23.0308C21.8901 23.1673 21.6431 23.2241 21.4 23.1905C18.2188 22.7438 15.2695 21.2735 12.998 19.002C10.7265 16.7305 9.2562 13.7812 8.80944 10.6C8.77582 10.3566 8.83279 10.1093 8.96951 9.90514C9.10623 9.70099 9.31319 9.55417 9.55105 9.49258L12.0951 8.83209C12.3238 8.77255 12.5663 8.79624 12.7791 8.89894C12.992 9.00164 13.1614 9.17666 13.2572 9.39274L14.5945 12.4038C14.6837 12.6051 14.7038 12.8303 14.6517 13.0442C14.5996 13.2581 14.4782 13.4488 14.3065 13.5866L12.8391 14.7602C13.9075 16.5778 15.4222 18.0925 17.2398 19.1609Z" fill="white"/>
</svg>
