<svg width="25" height="24" viewBox="0 0 25 24" fill="none" xmlns="http://www.w3.org/2000/svg">
<path d="M17.71 9.00002L13.33 2.44002C13.14 2.16002 12.82 2.02002 12.5 2.02002C12.18 2.02002 11.86 2.16002 11.67 2.45002L7.29 9.00002H2.5C1.95 9.00002 1.5 9.45002 1.5 10C1.5 10.09 1.51 10.18 1.54 10.27L4.08 19.54C4.31 20.38 5.08 21 6 21H19C19.92 21 20.69 20.38 20.93 19.54L23.47 10.27L23.5 10C23.5 9.45002 23.05 9.00002 22.5 9.00002H17.71ZM9.5 9.00002L12.5 4.60002L15.5 9.00002H9.5ZM12.5 17C11.4 17 10.5 16.1 10.5 15C10.5 13.9 11.4 13 12.5 13C13.6 13 14.5 13.9 14.5 15C14.5 16.1 13.6 17 12.5 17Z" fill="black"/>
</svg>
